<?xml version="1.0" encoding="iso-8859-1"?>
<!-- Generator: Adobe Illustrator 19.0.0, SVG Export Plug-In . SVG Version: 6.00 Build 0)  -->
<svg version="1.1" id="Capa_1" xmlns="http://www.w3.org/2000/svg" xmlns:xlink="http://www.w3.org/1999/xlink" x="0px" y="0px"
	 viewBox="0 0 512 512" style="enable-background:new 0 0 512 512;" xml:space="preserve">
<rect x="61.793" style="fill:#4398D1;" width="388.414" height="512"/>
<polygon style="fill:#3E8CC7;" points="61.793,503.172 61.793,512 450.207,512 450.207,220.69 "/>
<rect x="97.103" y="44.138" style="fill:#87CED9;" width="317.793" height="132.414"/>
<polygon style="fill:#6CBBC7;" points="185.997,176.552 414.897,176.552 414.897,44.138 360.43,44.138 "/>
<g>
	<rect x="97.103" y="229.517" style="fill:#FFA83D;" width="52.966" height="52.966"/>
	<rect x="185.379" y="229.517" style="fill:#FFA83D;" width="52.966" height="52.966"/>
	<rect x="273.655" y="229.517" style="fill:#FFA83D;" width="52.966" height="52.966"/>
	<rect x="361.931" y="229.517" style="fill:#FFA83D;" width="52.966" height="52.966"/>
	<rect x="97.103" y="317.793" style="fill:#FFA83D;" width="52.966" height="52.966"/>
	<rect x="185.379" y="317.793" style="fill:#FFA83D;" width="52.966" height="52.966"/>
	<rect x="273.655" y="317.793" style="fill:#FFA83D;" width="52.966" height="52.966"/>
</g>
<rect x="361.931" y="317.793" style="fill:#DE4C3C;" width="52.966" height="141.241"/>
<g>
	<rect x="97.103" y="406.069" style="fill:#FFA83D;" width="52.966" height="52.966"/>
	<rect x="185.379" y="406.069" style="fill:#FFA83D;" width="52.966" height="52.966"/>
	<rect x="273.655" y="406.069" style="fill:#FFA83D;" width="52.966" height="52.966"/>
</g>
<g>
	<rect x="264.828" y="132.414" style="fill:#3582BD;" width="17.655" height="17.655"/>
	<rect x="300.138" y="132.414" style="fill:#3582BD;" width="17.655" height="17.655"/>
	<rect x="335.448" y="132.414" style="fill:#3582BD;" width="17.655" height="17.655"/>
	<rect x="370.759" y="132.414" style="fill:#3582BD;" width="17.655" height="17.655"/>
</g>
<g>
</g>
<g>
</g>
<g>
</g>
<g>
</g>
<g>
</g>
<g>
</g>
<g>
</g>
<g>
</g>
<g>
</g>
<g>
</g>
<g>
</g>
<g>
</g>
<g>
</g>
<g>
</g>
<g>
</g>
</svg>
