<?xml version="1.0" encoding="iso-8859-1"?>
<!-- Generator: Adobe Illustrator 19.0.0, SVG Export Plug-In . SVG Version: 6.00 Build 0)  -->
<svg version="1.1" id="Capa_1" xmlns="http://www.w3.org/2000/svg" xmlns:xlink="http://www.w3.org/1999/xlink" x="0px" y="0px"
	 viewBox="0 0 512 512" style="enable-background:new 0 0 512 512;" xml:space="preserve">
<rect x="48.552" y="176.552" style="fill:#88B337;" width="406.069" height="335.448"/>
<rect x="48.552" y="370.759" style="fill:#6B962A;" width="406.069" height="141.241"/>
<polygon style="fill:#638724;" points="110.345,512 454.621,512 454.621,370.759 366.345,370.759 "/>
<g>
	<rect x="48.552" y="397.241" style="fill:#587820;" width="406.069" height="17.655"/>
	<rect x="48.552" y="432.552" style="fill:#587820;" width="406.069" height="17.655"/>
	<rect x="48.552" y="467.862" style="fill:#587820;" width="406.069" height="17.655"/>
</g>
<g>
	<path style="fill:#FDB62F;" d="M225.103,70.621L225.103,70.621c-3.001-18.114-17.196-32.309-35.31-35.31l0,0
		c18.114-3.001,32.309-17.196,35.31-35.31l0,0c3.001,18.114,17.196,32.309,35.31,35.31l0,0
		C242.3,38.312,228.105,52.506,225.103,70.621z"/>
	<polygon style="fill:#FDB62F;" points="101.517,70.621 83.862,70.621 83.862,97.103 57.379,97.103 57.379,114.759 83.862,114.759 
		83.862,141.241 101.517,141.241 101.517,114.759 128,114.759 128,97.103 101.517,97.103 	"/>
	<polygon style="fill:#FDB62F;" points="463.448,61.793 436.966,61.793 436.966,35.31 419.31,35.31 419.31,61.793 392.828,61.793 
		392.828,79.448 419.31,79.448 419.31,105.931 436.966,105.931 436.966,79.448 463.448,79.448 	"/>
</g>
<rect x="48.552" y="176.552" style="fill:#88B337;" width="203.034" height="194.207"/>
<rect x="251.586" y="176.552" style="fill:#6B962A;" width="203.034" height="194.207"/>
<g>
	<path style="fill:#D9D9D9;" d="M101.517,176.552L101.517,176.552c0,29.255-23.711,52.966-52.966,52.966l0,0v-52.966H101.517z"/>
	<path style="fill:#D9D9D9;" d="M101.517,370.759L101.517,370.759c0-29.255-23.711-52.966-52.966-52.966l0,0v52.966H101.517z"/>
	<rect x="110.345" y="264.828" style="fill:#D9D9D9;" width="35.31" height="17.655"/>
</g>
<path style="fill:#88B337;" d="M401.655,335.448c0,19.5-15.81,35.31-35.31,35.31h-88.276V176.552h88.276
	c19.5,0,35.31-15.81,35.31-35.31V335.448z"/>
<path style="fill:#86B53F;" d="M357.517,105.931v194.207h8.828c19.5,0,35.31,15.81,35.31,35.31V141.241
	c0-19.5-15.81-35.31-35.31-35.31H357.517z"/>
<circle style="fill:#D9D9D9;" cx="251.586" cy="273.655" r="70.621"/>
<rect x="216.276" y="176.552" style="fill:#FDB62F;" width="70.621" height="335.448"/>
<rect x="216.276" y="370.759" style="fill:#F5AB20;" width="70.621" height="141.241"/>
<g>
</g>
<g>
</g>
<g>
</g>
<g>
</g>
<g>
</g>
<g>
</g>
<g>
</g>
<g>
</g>
<g>
</g>
<g>
</g>
<g>
</g>
<g>
</g>
<g>
</g>
<g>
</g>
<g>
</g>
</svg>
