<?xml version="1.0" encoding="iso-8859-1"?>
<!-- Generator: Adobe Illustrator 19.0.0, SVG Export Plug-In . SVG Version: 6.00 Build 0)  -->
<svg version="1.1" id="Capa_1" xmlns="http://www.w3.org/2000/svg" xmlns:xlink="http://www.w3.org/1999/xlink" x="0px" y="0px"
	 viewBox="0 0 456.047 456.047" style="enable-background:new 0 0 456.047 456.047;" xml:space="preserve">
<path style="fill:#87CED9;" d="M210.467,1.031C127.119,10.666,67.363,86.044,76.998,169.392
	c4.345,37.582,22.555,72.191,51.069,97.055c18.824,16.28,32.507,37.682,39.384,61.6h121.136
	c6.545-23.691,19.993-44.898,38.632-60.92c63.613-54.73,70.814-150.666,16.084-214.279C310.381,14.583,260.604-4.834,210.467,1.031
	L210.467,1.031z"/>
<g>
	<path style="fill:#6A9923;" d="M244.067,256.047h-16l0,0c0-53.019,42.981-96,96-96h16l0,0
		C340.067,213.066,297.086,256.047,244.067,256.047z"/>
	<path style="fill:#6A9923;" d="M228.067,152.047L228.067,152.047c0-35.346,28.654-64,64-64l0,0
		C292.067,123.393,263.413,152.047,228.067,152.047z"/>
</g>
<g>
	<path style="fill:#88B337;" d="M116.067,160.047h16c53.019,0,96,42.981,96,96l0,0h-16
		C159.048,256.047,116.067,213.066,116.067,160.047L116.067,160.047z"/>
	<path style="fill:#88B337;" d="M228.067,336.047c-4.418,0-8-3.582-8-8v-184c0-4.418,3.582-8,8-8s8,3.582,8,8v184
		C236.067,332.465,232.485,336.047,228.067,336.047z"/>
	<path style="fill:#88B337;" d="M164.067,88.047c35.346,0,64,28.654,64,64l0,0C192.721,152.047,164.067,123.393,164.067,88.047
		L164.067,88.047z"/>
</g>
<path style="fill:#DEDEDE;" d="M300.067,320.047h-144c-4.418,0-8,3.582-8,8s3.582,8,8,8h13.368c1.724,7.884,2.607,15.929,2.632,24
	v48c0,8.837,7.163,16,16,16h80c8.837,0,16-7.163,16-16v-48c0.022-8.068,0.885-16.111,2.576-24h13.424c4.418,0,8-3.582,8-8
	S304.485,320.047,300.067,320.047z"/>
<path style="fill:#CFCFCF;" d="M252.067,336.047c-1.691,7.889-2.554,15.932-2.576,24v48c0,8.837-7.163,16-16,16h34.576
	c8.837,0,16-7.163,16-16v-48c0.022-8.068,0.885-16.111,2.576-24H252.067z"/>
<g>
	<path style="fill:#BABABA;" d="M204.067,424.047h48l0,0v8c0,13.255-10.745,24-24,24l0,0c-13.255,0-24-10.745-24-24l0,0V424.047
		L204.067,424.047z"/>
	<path style="fill:#BABABA;" d="M284.067,400.047h-112c-4.418,0-8-3.582-8-8s3.582-8,8-8h112c4.418,0,8,3.582,8,8
		S288.485,400.047,284.067,400.047z"/>
	<path style="fill:#BABABA;" d="M284.067,368.047h-112c-4.418,0-8-3.582-8-8s3.582-8,8-8h112c4.418,0,8,3.582,8,8
		S288.485,368.047,284.067,368.047z"/>
</g>
<g>
</g>
<g>
</g>
<g>
</g>
<g>
</g>
<g>
</g>
<g>
</g>
<g>
</g>
<g>
</g>
<g>
</g>
<g>
</g>
<g>
</g>
<g>
</g>
<g>
</g>
<g>
</g>
<g>
</g>
</svg>
