<?xml version="1.0"?>
<svg xmlns="http://www.w3.org/2000/svg" width="512" height="512" viewBox="0 0 512 512">
<path fill="#ffffff" d="M464,408h-8V240a8.015,8.015,0,0,0-2.73-6.02l-128-112a8,8,0,0,0-10.54,0l-128,112A8.015,8.015,0,0,0,184,240V408H136V375.32a48,48,0,1,0-16,0v13.37l-10.34-10.35a8,8,0,0,0-11.32,11.32L116.69,408H72V287.42a56,56,0,1,0-16,0v21.27L45.66,298.34a8,8,0,0,0-11.32,11.32L56,331.31V408H16a8,8,0,0,0,0,16H464a8,8,0,0,0,0-16ZM64,216a8,8,0,0,0-8,8v47.2a40,40,0,1,1,16,0V224A8,8,0,0,0,64,216Zm64,112a8,8,0,0,0-8,8v22.99a32,32,0,1,1,16,0V336A8,8,0,0,0,128,328Zm184,80H296V328h16Zm32,0H328V328h16Zm96,0H360V320a8,8,0,0,0-8-8H288a8,8,0,0,0-8,8v88H200V243.63l120-105,120,105Z"/>
<path fill="#ffffff" d="M496,408h-8a8,8,0,0,0,0,16h8a8,8,0,0,0,0-16Z"/>
<path fill="#ffffff" d="M352,216H288a8,8,0,0,0-8,8v64a8,8,0,0,0,8,8h64a8,8,0,0,0,8-8V224A8,8,0,0,0,352,216Zm-8,16v16H328V232Zm-48,0h16v16H296Zm0,48V264h16v16Zm48,0H328V264h16Z"/></svg>
