<?xml version="1.0" encoding="iso-8859-1"?>
<!-- Generator: Adobe Illustrator 19.0.0, SVG Export Plug-In . SVG Version: 6.00 Build 0)  -->
<svg version="1.1" id="Capa_1" xmlns="http://www.w3.org/2000/svg" xmlns:xlink="http://www.w3.org/1999/xlink" x="0px" y="0px"
	 viewBox="0 0 454.4 454.4" style="enable-background:new 0 0 454.4 454.4;" xml:space="preserve">
<g>
	<path style="fill:#8adc8a;" d="M227.2,101.6c69.6,0,125.6,56.4,125.6,125.6s-56.4,125.6-125.6,125.6s-125.6-56.4-125.6-125.6
		S158,101.6,227.2,101.6"/>
	<path style="fill:#8adc8a;" d="M34,127.2c-4.8-2.8-6.4-8.8-3.6-13.6c2.8-4.8,8.8-6.4,13.6-3.6l40,23.2c4.8,2.8,6.4,8.8,3.6,13.6
		s-8.8,6.4-13.6,3.6L34,127.2z M10,237.2c-5.6,0-10-4.4-10-10s4.4-10,10-10h46c5.6,0,10,4.4,10,10s-4.4,10-10,10H10z M44,344.4
		c-4.8,2.8-10.8,1.2-13.6-3.6c-2.8-4.8-1.2-10.8,3.6-13.6L74,304c4.8-2.8,10.8-1.2,13.6,3.6c2.8,4.8,1.2,10.8-3.6,13.6L44,344.4z
		 M127.2,420.4c-2.8,4.8-8.8,6.4-13.6,3.6s-6.4-8.8-3.6-13.6l23.2-40c2.8-4.8,8.8-6.4,13.6-3.6s6.4,8.8,3.6,13.6L127.2,420.4z
		 M237.2,444.4c0,5.6-4.4,10-10,10s-10-4.4-10-10v-46c0-5.6,4.4-10,10-10s10,4.4,10,10V444.4z M344.4,410.4
		c2.8,4.8,1.2,10.8-3.6,13.6c-4.8,2.8-10.8,1.2-13.6-3.6l-23.2-40c-2.8-4.8-1.2-10.8,3.6-13.6c4.8-2.8,10.8-1.2,13.6,3.6
		L344.4,410.4z M420.4,327.2c4.8,2.8,6.4,8.8,3.6,13.6c-2.8,4.8-8.8,6.4-13.6,3.6l-40-23.2c-4.8-2.8-6.4-8.8-3.6-13.6
		s8.8-6.4,13.6-3.6L420.4,327.2z M444.4,217.2c5.6,0,10,4.4,10,10s-4.4,10-10,10h-46c-5.6,0-10-4.4-10-10s4.4-10,10-10H444.4z
		 M410.4,110c4.8-2.8,10.8-1.2,13.6,3.6c2.8,4.8,1.2,10.8-3.6,13.6l-40,23.2c-4.8,2.8-10.8,1.2-13.6-3.6c-2.8-4.8-1.2-10.8,3.6-13.6
		L410.4,110z M327.2,34c2.8-4.8,8.8-6.4,13.6-3.6c4.8,2.8,6.4,8.8,3.6,13.6l-23.2,40c-2.8,4.8-8.8,6.4-13.6,3.6
		c-4.8-2.8-6.4-8.8-3.6-13.6L327.2,34z M217.2,10c0-5.6,4.4-10,10-10s10,4.4,10,10v46c0,5.6-4.4,10-10,10s-10-4.4-10-10V10z M110,44
		c-2.8-4.8-1.2-10.8,3.6-13.6s10.8-1.2,13.6,3.6l23.2,40c2.8,4.8,1.2,10.8-3.6,13.6S136,88.8,133.2,84L110,44z"/>
</g>
<path style="fill:#4ab74a;" d="M188.4,385.2l44.8-129.6l-118.4-0.4c-2,0-3.6-1.6-3.6-3.6c0-0.8,0.4-1.6,0.8-2.4l0,0
	c32.8-40.8,65.6-81.6,98.4-122.4c16.4-20.4,32.8-40.8,49.2-61.2c1.2-1.6,3.6-2,5.2-0.4c1.2,1.2,1.6,2.8,1.2,4.4l-45.2,129.2
	l118.8,0.4c2,0,3.6,1.6,3.6,3.6c0,0.8-0.4,1.6-0.8,2.4c-31.6,42-64.4,82-97.6,122.4c-16.8,20.8-34,41.2-50,61.2
	c-1.2,1.6-3.6,2-5.2,0.4C188.4,388.4,188,386.8,188.4,385.2"/>
<g>
</g>
<g>
</g>
<g>
</g>
<g>
</g>
<g>
</g>
<g>
</g>
<g>
</g>
<g>
</g>
<g>
</g>
<g>
</g>
<g>
</g>
<g>
</g>
<g>
</g>
<g>
</g>
<g>
</g>
</svg>
