<?xml version="1.0" encoding="utf-8"?>
<!-- Generator: Adobe Illustrator 23.0.5, SVG Export Plug-In . SVG Version: 6.00 Build 0)  -->
<svg version="1.1" id="Warstwa_1" xmlns="http://www.w3.org/2000/svg" xmlns:xlink="http://www.w3.org/1999/xlink" x="0px" y="0px"
	 viewBox="0 0 1276 1280" style="enable-background:new 0 0 1276 1280;" xml:space="preserve">
<style type="text/css">
	.st0{fill:#12B91B;}
	.st1{fill:#FFFFFF;}
	.st2{display:none;fill:#65B73F;}
</style>
<g transform="translate(0.000000,1280.000000) scale(0.100000,-0.100000)">
	<path class="st0" d="M3242.4,11819.6c-660.9-398.5-1156.6-816.1-1613.4-1356.1c-805.9-954-1308.5-2121.1-1451.8-3372.4
		c-108.7-948.3,4.1-1927.3,327-2830.2c113.7-317.5,187.5-480.7,372.6-832c182.4-346,270.7-490.4,469.2-763.2
		C2425.1,1173.3,4103.7,225.6,5942.4,71.4C6968-14.5,7960.5,146.8,8946.7,561.6c199.3,83.8,724.8,364.1,910.9,485.6
		c363.4,238.4,673.6,484.5,957.2,757.9c1265,1218.3,1962.2,2914.5,1923.7,4676.2c-11.5,496.4-57,847.6-184.6,1398.9
		c-125.7,545.7-243.8,863-507.2,1362.9c-190.3,363.1-340.7,599.8-587.6,924.2c-825.2,1087-1938.9,1861.2-3234.7,2247.9
		c-1026.4,307.7-2058.6,351-3109.5,131c-551.2-115.2-737.7-176.6-1320.6-439.2C3670.4,12051.9,3345.3,11882.8,3242.4,11819.6z
		 M2894,11540.4l224.2,154.5c176.2,106.3,340.8,198.6,434.9,244.8c61.2,30,135.5,67,165.3,82.6l55.1,29l-0.4-107.4
		c-0.8-106.5-1.2-107.8,49.4-225.2c29.8-69.2,56.5-119.9,63.1-121.9c13.3-4.1,181.9,27.8,184,34.4c0.8,2.7-9.7,41.8-23.5,87
		c-23.3,78.2-24,87.9-5.3,145.7l19.9,61.8l344.2,22.8c189.3,11.6,395.4,23,459.4,24.4l115.7,2.9l220.2,139.5l218.8,139.9l30.6,96.5
		c16.5,53.4,32.4,97.5,35.9,99.3c2.6,1.4,189.4,9.4,415,17.7l408.8,14.5l146.8,77.4l147.7,77.8l110.1-5.6
		c338.3-14.9,752.7-72.3,1110.6-153.9c143.4-32.7,416.3-107.7,413.8-113.5c-0.8-2.7-80.5-14.5-178.8-27.2
		c-426.5-55.1-727.7-64.2-897.2-28.5l-60.4,12.8l-337.6-145.5l-338.9-145.1l-34.3-110.8c-19.5-60.5-31.5-116-27.4-123.9
		c4.6-6.5,41.1-39.8,82.4-73.8l74.7-61.1l63.4,30.1c35.9,16.7,65.7,27.9,68.4,24.9c1.8-3.5,34.3-52.3,72.2-109.4
		c37.9-57.1,68.5-104.6,69-105.5c-0.4-1.3-61.9,0.9-136.6,5c-106.6,5.2-136.2,4.2-137.2-8.7c-0.7-9.3-2.7-81.8-5.4-161.4
		c-3.5-126.9-7.1-145.5-25.1-149.4c-11.5-1.6-45.2-13.8-75.4-26.4c-29.8-13.5-64-24.8-75.9-25.5c-11.9-0.7-31.7-5.5-44.9-10.2
		c-16.7-6.5-32.7-1.6-56.5,16c-36.4,26.6-42.9,24.3-106.8-26.1c-28.2-22.7-45.8-46.5-55-73.6l-12.9-39.2l-55,9
		c-52.8,9-58.9,8-128-28.4c-77.8-41-74.8-36.1-61.8-107.4c3.5-19.4,8.4-20.1,51.3-4.2l46.9,16.9l-13.5-69.7
		c-11.4-65.2-10.9-70.5,10.2-82.9c32.6-17.4,32.7-19.6-4.9-39.4c-42.8-22.6-163.7-51.7-253.6-61.1c-78.5-7.9-150.2-41.2-185.5-84.4
		c-28.9-34.2-55-113.8-100.9-304.4l-34-145.2l105.4-32.7l105.4-32.7l49.8,26.3c28,14.7,85,33.6,126.4,42c64.7,12.9,78.4,12.3,96.4-5
		c24.4-22.9,36.2-17.8,187.9,75.6l82.9,50.4l59.4,135.2c61.9,143.2,61.9,143.2,189.3,240.4c51.7,39.5,52.6,40,165.9,51.7
		c103.6,11.1,117.2,14.9,159.9,44.1c126.3,86.7,144.2,97.2,143.1,84.4c-1.4-18.6,56.1-62,149.1-113.5
		c42.5-23.4,122.8-80.4,177.7-125.2c56.2-45.2,136.9-100.9,179.9-125.2c69.7-37,83.7-48.6,119.7-102.2c39.7-58.4,41.9-60.5,62-47.7
		c11.3,8.2,70.8,35.1,133,61.2c62.2,26.1,113.4,49.7,114.6,53.7c1.7,3.1-24.8,21.6-57,40.3c-43.9,26-80.8,36.7-145.9,43.7
		c-72.6,8.6-91.8,15.3-122.4,41.6c-19.4,17.7-100,88-178.3,156.1c-79.2,67.7-142.3,126-141,127.8c0,2.2,15,20.2,32.7,39.6
		c36.2,41.4,34.9,41.8,121.5-18.6c27.8-18.8,85.6-54.3,128.4-76.3c76.9-42.1,80.4-42.5,209-40.6l131.2,1l44-72.8
		c66.9-109.9,90.1-120,242.5-100l119.8,16.3l53.6,78.5c76.3,111.7,76.7,113,77.2,169.1l1.1,50.8l-62.5,29.6l-63.4,29.1l95.3,50.2
		l96.1,50.7l117.1-42.1c114-40.4,120.2-41.6,277.9-37.8c129.8,3.7,162.6,0.8,165.5-13.3c2.4-8.8,14.1-41.7,25.4-71.5l21.1-54.8
		l117.4-36.4l117.9-37.2l-13.6-46.2c-7.9-25.4-16.2-47.6-20.6-49.9c-20.1-10.6-432.8-30.5-561-26.6l-149.4,3.9l-189.3-113.2
		c-104.3-62.8-204.6-124.6-222.4-137.3l-33.1-24.1l45.9-78.6c25.2-43.6,52.2-86.4,59-95.1c9.5-11.7,74.3-22.3,205.8-34.5
		c155-14.4,227.4-14.1,380-0.7c164,15,492.4,12.7,518.4-2.6c4.9-3,25.3-48.1,45.9-99.8c33.7-87.2,36.7-105.7,36.2-204.2
		c0.4-60.1-2.1-110.5-6.4-112.8c-3.5-1.8-48.6,1.2-100.4,6.2c-65.1,7-167.8,34.4-340.9,91.7l-247,80.9l-45-22.6
		c-42.8-22.6-49.4-22.7-237.5,12.2l-193.4,34.3l-61.5-35.8l-61.5-35.8l20.8-84l20.8-83.9l-32-13.5c-58.7-24.2-64.9-23-86.5,15.8
		c-10.6,20.1-25.6,42.3-33.3,48.3c-7.6,6-169.6,35.7-360.2,64.8c-190.6,29.1-346.7,56.2-346.8,58.4c-1.4,2.6,8.7,47,21.8,98.6
		c22.8,90.2,25.3,96,83.4,151.1c33.8,31.2,58.8,60,57,63.5c-1.4,2.6-35.9,23.5-76.9,44.3l-72.8,38.7l-48.6-22.2
		c-44.2-19.9-61.9-20.3-189.5-4.9l-141.3,16l-87.6-77.4l-87.6-77.4l-89.6,17.5c-49.3,10.9-133.2,28.1-184.6,38.9l-95.9,20.9
		l-82-49.9c-124.8-74.7-259.9-121.3-399.1-138.9l-115.5-14l-112.4-72.7l-112.4-72.7l-79.7-155.9l-79.7-155.9l-107.4-82.3
		c-98.3-74.1-111.2-87.7-148.7-152.1c-22.2-38.5-66.5-94.2-96.8-123.6c-52-49.7-55.8-57.3-65.5-119.4l-9.6-66.5l-112.9-52.8
		l-112-52.3l-62.2-167.9c-39.2-107.8-58.5-177.1-55.1-194.3c3.4-15,25.5-97.1,48.1-184.5l41.4-156.9l-50.9-183.1
		c-49.7-176.9-50.4-184-34.5-248.2c9.2-38.7,34.4-101.3,59.8-149.4c41.9-79.5,48.3-87.3,145.5-170.1
		c130.1-111.2,277.3-216.8,589.7-423.9l251.4-165.6l65.9-4.3c61.9-3.1,74.7,0.3,163.9,40.6l96.7,43.2l170.8-31.7
		c119.3-20.9,178.2-26.7,193.9-18.4c13.1,6.9,105.5,47.8,205.3,91.4c99.8,43.7,186,81.3,190.4,83.6c5.2,2.8,34.2-9.9,65.1-28.2
		l55.5-33.3l42.2,30.1l42.7,29.2l129.7-51.1l130.1-49.8l33.5,23.3c18.7,13.2,47.4,35,66.1,48.3l31.7,24.5l105.2-144.4l103.8-144
		l-14.1-106.8c-8-58.9-30.4-147.8-49.3-196.8l-35.2-90l102.3-132.6c55.9-74.4,173.2-245.9,261.9-386.8
		c160.9-252.4,160.9-252.4,175.7-322.8c29.9-137.2,29.9-137.2-44.5-273.6l-67.6-123.8l71.2-438.1l72.1-437.7l138.4-169.4
		l138.4-169.4l61.7-176.3l62.1-177.2l-23.9-141l-23.5-141.9l46.4-102.8c31.1-69.6,50-126.6,57.6-172.9l10.8-69.1l88.9,17.8
		l88.9,17.8l66.7,85.4l65.8,84.9l108.4,57.1l108.4,57.1l212.6,37.2l213.5,37.7l84.1,118c46.8,66,143.4,215.2,214.7,332l130.2,212.7
		l88.4,58.9c48.3,33.3,89.2,66,89.9,73.1c-0.1,6.6-28.2,78.9-61.7,159.5l-62.8,146.7l19.4,83.9l19.8,85.3l80.1,55.6
		c128,89.8,132.3,94.3,180.6,212.4l45.4,108.8l68.2,35.9l68.2,35.9l128.7,347c144.5,391,138.8,346.7,71.5,540.2
		c-18.8,54.8-47.7,145.7-63.6,203.2c-28.7,103.2-28.8,105.4-8,292.8l20.3,188.2l55.3,37c30.1,19.2,69.8,43.5,89,53.6
		c21,11.1,62,53.9,112,116c65.4,83.6,95.6,136.4,198,346.7l121.5,248.3l6.6,144.2c11.7,259.6,15,352.9,10.8,360.8
		c-2.3,4.4-39.4,2.7-82.1-3.1l-77.5-11.8l-14.8-52.5l-13.9-52l-115.8,22.7c-146,29.1-138.9,28.4-134.8,1.5
		c1.2-15-20.2,12.8-68.6,87.8c-47.5,73.2-71.4,116.4-70.8,130.2c-0.2,49-23.6,70.2-111.7,99.7c-98.3,31.9-168.3,79.9-314.7,211.5
		c-91,81.6-104.2,98.1-187.3,226.2c-74,115.1-92,149.1-106.8,200.5c-12.8,41.3-36,91.6-72.6,150.4
		c-55.4,92.5-206.2,387.1-231.5,454.1l-14.5,38.1l73.4,19.7c40.4,10.1,77.8,17.6,81.8,16.3c5.3-1.7,46.7-97.1,92-212.8l82.7-209.9
		l89.8-68.8l89.4-67.9l81.5-154.7c123.4-234.2,197.6-336.9,336.6-469.1l115.4-108.9l176.2-78c95.9-42.1,176.7-78.8,178.9-78.8
		c1.8-1.3,16.7,25.5,32.8,58.6c27.4,60.2,28.3,60.7,106.1,101.7l77.3,41.9l104,406.5l104,406.5l-22.9,79.5
		c-12.9,43.5-26.1,85.6-29.4,93.9c-8.3,15.7-101.7,63.7-310.5,159.1c-152.6,69.2-159.2,69.1-204.1-21.6
		c-16.5-32.2-34.1-58.2-39-57.4c-4.5,2.1-31.3,36-60.4,76.5c-43.3,60.9-64.9,80.8-125.8,120.1c-60.5,38.5-76.9,44.3-90.9,34.7
		c-12.2-8.7-27.2-7.7-44.7,2.1c-21.9,11.9-31.5,28-60.8,94.1c-18.6,43.8-41.1,105.6-50.6,136.3c-16.7,57.1-17.1,58,22.2,116.7
		c21.8,32.7,40.7,58.3,43.4,57.5c15.2-7.6,233.8-210.6,281.3-262.6l58.8-62.8l171.4-39.2c94.1-21.8,266.1-66.3,382.1-100.1
		l209.9-61.3l103.4-103c57.3-55.8,148.7-157.2,202.7-223.7l99.3-120.7l72.7,8.2l73.1,9.5l89-175.3
		c48.5-96.2,158.7-332.9,245.9-525.9c86.3-193.5,158.6-351.9,160.8-351.8c2.2,0,24.8-0.4,51.3,0.2c25.6,0.1,48.7-3.4,51-7.7
		c14.3-27.1,86.6-393.2,111-562.3c104-712.3,87.6-1412.1-47.5-2115.3c-280.8-1456.6-1073.7-2770-2227.5-3693
		C10042,1208,9750,1018.4,9365.5,815.8c-402-211.9-729.6-346.6-1129.6-464.7l-156.3-46.6l-128.6,42.8
		c-70.8,24.1-143.3,49.5-161.6,56.6c-35.2,13.8-50.6,11.3-1469.1-250.6l-264.5-49l-200.1,19.6c-855.4,82.9-1671.2,336.3-2427.3,754
		l-166.8,91.9l-214.9,297.6c-213.6,297.2-214.9,297.6-277.7,338.3c-34.9,21.8-93.9,72.2-131.4,109.4l-67.8,69.2L2522,1911
		c-35.1,92-45.7,131.1-38.4,142.8c4.2,8.9,24.7,44.3,44.3,79.2l34.9,63l-27.1,47.1c-14.7,25.8-52.7,89.5-83,140.5l-55,93.8
		l56.3,115.6l56.7,117l-49.3,93.5l-49.7,94.4l65.5,386.3c35.7,212,66.3,391.1,68.4,397.8c2.5,8,41.1,19.4,97.9,30.4l93.7,19.2
		l13.8,56.4c9.4,35.1,16.8,266.8,19.9,600l5.2,543.2l112.5,91.7l112.5,91.7l14.6,59.1c28,116.4,28.6,108.9-15.5,167.1
		c-32.3,42.2-70.5,74.5-191.6,155.9l-150.6,101.5l-139.4,10.3l-139.4,10.3l-87.8,160.3l-86.5,159.9l-199.3,1l-198,0.6l-110.6,214.1
		l-109.8,214.6l0.9,83.1l1.7,83.5l-65.4,39.3c-62.2,37.6-72.4,40-187.8,42.8l-122.5,3.6l-69.3,80.7l-69.3,80.7l-69,166.9
		c-37.3,92-74.3,170.7-82.4,175.4c-19.7,12-332.5,156.4-335.1,155c-1.7-0.9-50.5-56.8-107.8-123.8
		c-102.6-118.8-107.8-123.8-188.2-166.2c-45.4-23.9-83.1-41.5-84.4-38.9c-5.1,9.6,24.2,252.8,50.3,417.3
		c85.2,541.8,250.9,1098.1,474.5,1593.3c95.3,211,88,201.6,198.1,261.8c73.4,40.9,134.3,65.2,267.2,107.3l172.9,55.4l15.8,48.5
		c9.6,28.5,12.5,75.8,7.8,112.4c-5.5,48.5,0.3,90.6,22.9,170.6l30,106.2l70.2,42.6c61.1,36.7,75.4,49.8,104,97.2
		c39.3,65.4,126.3,167.1,178.9,209.3c20.8,17.7,149,100.8,285,185.9l248.1,154.2l13.3,40.5c7.5,21.8,20.5,73.3,28.9,114.6
		c15.2,72.8,16.5,74.6,59.3,97.2c60.8,30.9,177.8,73.6,212.6,77.5c15.9,1.7,35.5-5.9,45.9-17.1c9.1-10.9,31.9-26.7,48.9-35.6
		c24.1-11.9,34.6-25.3,49.4-59.9c15.9-40.8,19.5-43.3,28.9-29.4c6.4,9,28.4,77.5,48.9,150.8c33.2,121.3-13.3,185.3-12.8,351.9
		l-28.1,292.4 M674,4273.4c101-113.2,249.2-288.5,328.7-388.4l144.8-181.6l93.9-195.1l93.9-195.1l160.9-106.1
		c88.3-57.3,162.7-109.6,166-115.8c2.8-5.2,20.8-83.9,39.9-173.2l34.9-163.6l128.6-267.2l129.9-267.6l133.4-124
		c139.3-128.7,206.8-208.1,456.9-536.4l116.4-153l97.6-58c73.4-43.9,129.1-88.3,232-185.9c75.3-70.9,131.7-127.1,125.1-125
		c-19.1,6.7-230.3,146.6-355.9,236.7c-621.1,445.4-1139,985.3-1578.1,1644.9C993.4,3262.7,738,3760,590.9,4149.2
		c-61.9,166.1-114.3,325-107.3,328.7C486.2,4479.3,572.6,4387.5,674,4273.4z"/>
	<path class="st0" d="M10723.3,3548.4l-201.7-140.1l-239.9-14l-239.9-14l-128.1-84c-125.1-81.5-129.5-86.6-173.7-185.9
		c-44.2-98-53-107-200.2-220.3c-156-121-203.1-142.6-303.2-142.6c-61.8,0-66.2-6.4-32.4-48.4c22.1-26.7,19.1-31.8-66.2-114.6
		l-89.8-85.3v-104.4c0-105.7,0-105.7,38.3-105.7c48.6,0,493.1,38.2,515.2,44.6c8.8,2.5,204.6,185.9,434.2,407.5
		c229.6,222.8,444.5,430.4,476.9,460.9c54.5,52.2,67.7,57.3,161.9,70c101.6,14,104.5,14,225.2,117.1
		c66.2,56,120.7,108.2,120.7,115.9c0,21.6-75.1,184.6-85.4,184.6C10929.3,3688.4,10833.7,3626,10723.3,3548.4z"/>
</g>
<path class="st1" d="M340.9,893l0.8,2.1C340.8,894,340.9,893,340.9,893z"/>
<path class="st1" d="M4.4,439.3"/>
<path class="st1" d="M337.8,577.9"/>
<path class="st1" d="M444.9,579"/>
<g>
	<path class="st2" d="M719.5,858.3c0.2,0.3,0.4,0.7,0.5,1.1c54.8,141.4,40.5,288.8-36.2,354.2c-103.2,88.1-348.6,52.8-493.1-169
		c-0.7-1-1.1-2.2-1.4-3.4C150,825.9,110.8,610.6,71.5,395.4c-0.8-4.7,2-9.2,6.5-10.5c43-12,107.2-23.1,182.4-11.4
		C444,402,546.4,543.4,568.4,575.6c0.2,0.3,0.4,0.6,0.5,0.9C619.1,670.4,669.3,764.3,719.5,858.3z"/>
	<path class="st0" d="M771.6,930.8c3.1,1.6,5,4.8,4.9,8.3c-5.3,231.1-87.9,278.8-106.6,288.2c-125.1,62.6-372-97.7-599.8-428.3
		c-1.7-2.4-2.1-5.6-1.1-8.4c50.1-137.7,100.2-275.4,150.4-413.1c1.4-4,5.4-6.4,9.6-6l85.7,9.1c3.7,0.4,6.7,2.9,7.8,6.5
		c21.1,69.1,57.8,160.5,123.4,255.1C555.9,800.8,691.4,887.9,771.6,930.8z"/>
	<path class="st0" d="M551.2,1254c-33.7-0.4-83.5-4.5-140-23.2c-13.5-4.5-77.6-23.9-151.5-84.9c-98-80.9-179.1-176.3-217.6-300.8
		c-56.4-182.2-31.5-355,60.2-520.8c44.2-80,94.1-124.9,105.9-135.6c22.7-20.8,44.2-36.9,62.1-49c5.8-3.9,13.6-0.1,14.2,6.8
		C306.1,402.6,393.7,549.9,477,639c123.8,132.6,335.9,241.2,333.6,367c-1.1,61.6-28.1,113.2-28.1,113.2
		c-11.4,21.3-32.6,53.7-69.2,81.9C647.6,1251.5,576.4,1254.2,551.2,1254z"/>
</g>
<path class="st1" d="M144.7,988.9c51,31.7,55.3,32.9,114.7,66.3c83.8,47,163.3,87.9,236.6,123.3c26.4,27.9,54.4,54.3,78.8,84.4
	c14.5-7.1,39.8-14.4,39.8-14.4s-30.8-42.6-50-69.1c8.8-49.3,19-88,26.8-114.6c14.2-48.2,25.5-97.7,42.4-144.8
	c3.3-9.3,4.1-10.8,2.9-11.4c-7.3-3.8-127.5,194-117.3,211.9c11.5,20.2-130.2-174-130.2-174c0,0,26.4-56.8,48.3-109.4
	c7.9-18.9,18.6-45.5,30.5-78.1c-56.2,66.9-70.8,122.6-106.6,147.3c-5.1,3.5-12.5-16.2-34.8-50.2C288,796.7,264,765.9,265,753.9
	c5-57.1,19.3-42.5,49.9-136.1c1.4-4.1,17.8-56.2,17.5-58.5c-22.4,42.6-59.8,104.8-88.2,146.4c-1.9,2.8-7.2,5.3-5.8,8.4
	c-98.5-217.7-67.3-393.9-74-394.6c-6.6-0.7-55.5,182,29.9,379.6c-3.5-8.1-108-66.7-183.4-118.1c80.5,66.2,115,107.4,198.7,162.4
	c32,50.3,63.9,100.6,95.9,150.8c-90.7-42.4-137.2-55.4-227.9-97.8c44.2,29.4,49.2,31.1,103.3,63.1c53.8,31.7,105,59.9,152.6,84.7
	c32.9,45.2,86.2,117,119.2,162.2"/>
</svg>
