<svg height="496pt" viewBox="0 0 496.0004 496" width="496pt" xmlns="http://www.w3.org/2000/svg">
<path fill="#ffffff" d="m248 128c35.347656 0 64-28.652344 64-64s-28.652344-64-64-64-64 28.652344-64 64c.039062 35.328125 28.671875 63.960938 64 64zm0-112c26.507812 0 48 21.492188 48 48 0 26.511719-21.492188 48-48 48s-48-21.488281-48-48c.027344-26.5 21.5-47.972656 48-48zm0 0"/><path fill="#ffffff"  d="m240 24v1.503906c-8.960938 3.246094-14.945312 11.734375-15 21.265625 0 13.871094 11.046875 19.757813 19.113281 24.0625 8.300781 4.433594 10.886719 6.441407 10.886719 10.398438-.070312 3.800781-3.199219 6.828125-7 6.769531-3.777344 0-8-2.679688-8-6.28125 0-4.417969-3.582031-8-8-8s-8 3.582031-8 8c.242188 9.703125 6.699219 18.144531 16 20.914062v1.367188c0 4.417969 3.582031 8 8 8s8-3.582031 8-8v-1.503906c8.960938-3.246094 14.945312-11.734375 15-21.265625 0-14.191407-11.199219-20.160157-19.367188-24.519531-8.167968-4.359376-10.632812-6.253907-10.632812-9.941407.070312-3.800781 3.199219-6.828125 7-6.769531 3.777344 0 8 2.679688 8 6.28125 0 4.417969 3.582031 8 8 8s8-3.582031 8-8c-.242188-9.703125-6.699219-18.144531-16-20.914062v-1.367188c0-4.417969-3.582031-8-8-8s-8 3.582031-8 8zm0 0"/><path fill="#ffffff"  d="m463.199219 304.886719c.511719-4.277344.777343-8.578125.800781-12.886719 0-86.015625-96.894531-156-216-156-33.527344-.140625-66.808594 5.671875-98.304688 17.167969-28.261718-34.710938-92.382812-23.566407-95.128906-23.085938-2.683594.484375-4.933594 2.308594-5.96875 4.828125-1.035156 2.523438-.714844 5.402344.851563 7.632813l34 48.5625c-11.402344 9.550781-21.445313 20.621093-29.847657 32.894531h-29.601562c-13.253906 0-24 10.746094-24 24v80c0 13.253906 10.746094 24 24 24h24.433594c15.484375 25.578125 37.402344 46.652344 63.566406 61.128906v38.871094c0 24.300781 19.699219 44 44 44s44-19.699219 44-44v-7.953125c15.867188 2.609375 31.917969 3.929687 48 3.953125 18.792969-.007812 37.546875-1.804688 56-5.367188v9.367188c0 24.300781 19.699219 44 44 44s44-19.699219 44-44v-43.734375c16.628906-10.53125 31.40625-23.742187 43.726562-39.089844 7.972657 5.75 12.570313 15.082031 12.273438 24.90625.007812 3.914063-.570312 7.8125-1.71875 11.558594-.875 2.828125-.117188 5.90625 1.972656 8.003906 2.085938 2.097657 5.164063 2.871094 7.992188 2.011719 23.664062-7.070312 39.847656-28.878906 39.753906-53.574219-.105469-23.511719-12.5625-45.234375-32.800781-57.195312zm-392.933594-160.511719c16.992187-1.214844 46.679687-.4375 63.4375 15.34375-13.203125 5.929688-25.796875 13.132812-37.597656 21.511719zm-46.265625 191.625c-4.417969 0-8-3.582031-8-8v-80c0-4.417969 3.582031-8 8-8h20.382812c-15.078124 29.949219-16.453124 64.964844-3.757812 96zm368 52.878906v-4.878906c0-4.417969-3.582031-8-8-8s-8 3.582031-8 8v68c0 15.464844-12.535156 28-28 28s-28-12.535156-28-28v-36c0-4.417969-3.582031-8-8-8s-8 3.582031-8 8v10.328125c-34.28125 6.875-69.539062 7.371094-104 1.472656v-11.800781c0-4.417969-3.582031-8-8-8s-8 3.582031-8 8v36c0 15.464844-12.535156 28-28 28s-28-12.535156-28-28v-68c0-4.417969-3.582031-8-8-8s-8 3.582031-8 8v10.398438c-21.347656-13.1875-39.007812-31.566407-51.335938-53.421876 0-.082031-.078124-.136718-.121093-.214843-8.140625-14.96875-12.453125-31.722657-12.542969-48.761719 0-77.191406 89.71875-140 200-140s200 62.808594 200 140c0 36.183594-20.257812 70.855469-56 96.878906zm72 5.226563c.296875-15.023438-6.828125-29.230469-19.046875-37.976563 6.683594-10.640625 11.753906-22.210937 15.046875-34.335937 12.550781 9.601562 19.9375 24.484375 20 40.289062.046875 12.605469-5.890625 24.488281-16 32.023438zm0 0"/><path fill="#ffffff"  d="m120 208c-13.253906 0-24 10.746094-24 24s10.746094 24 24 24 24-10.746094 24-24-10.746094-24-24-24zm0 32c-4.417969 0-8-3.582031-8-8s3.582031-8 8-8 8 3.582031 8 8-3.582031 8-8 8zm0 0"/><path fill="#ffffff"  d="m363.679688 186.578125c-3.921876-2.035156-8.75-.5-10.785157 3.421875-2.03125 3.921875-.496093 8.75 3.425781 10.785156 43.007813 22.296875 67.679688 55.550782 67.679688 91.214844 0 4.417969 3.582031 8 8 8s8-3.582031 8-8c0-41.847656-27.824219-80.28125-76.320312-105.421875zm0 0"/><path fill="#ffffff"  d="m427.320312 320.390625c-1.9375-.875-4.140624-.949219-6.128906-.199219-1.988281.75-3.597656 2.261719-4.472656 4.199219-3.863281 8.347656-8.859375 16.125-14.839844 23.113281-2.847656 3.378906-2.414062 8.429688.964844 11.277344s8.429688 2.414062 11.277344-.964844c6.914062-8.105468 12.6875-17.121094 17.160156-26.792968.890625-1.933594.972656-4.144532.230469-6.136719-.746094-1.996094-2.253907-3.613281-4.191407-4.496094zm0 0"/><path fill="#ffffff"  d="m312 176h-128c-4.417969 0-8 3.582031-8 8v32c0 4.417969 3.582031 8 8 8h128c4.417969 0 8-3.582031 8-8v-32c0-4.417969-3.582031-8-8-8zm-8 32h-112v-16h112zm0 0"/></svg>