<?xml version="1.0"?>
<svg xmlns="http://www.w3.org/2000/svg" width="512" height="512" viewBox="0 0 512 512"><g><path fill="#ffffff"  d="M168.33,356.5,97.7,291.45A24.023,24.023,0,0,0,80,284.57V216a24.032,24.032,0,0,0-24-24H40a24.032,24.032,0,0,0-24,24V392.47a23.9,23.9,0,0,0,6.87,16.81l54.84,55.67A8.075,8.075,0,0,1,80,470.56V496a8,8,0,0,0,8,8h80a8,8,0,0,0,8-8V408.02l.07-33.82A24.018,24.018,0,0,0,168.33,356.5ZM160,408v80H96V470.56a23.829,23.829,0,0,0-6.9-16.84L34.29,398.08A7.981,7.981,0,0,1,32,392.47V216a8.011,8.011,0,0,1,8-8H56a8.011,8.011,0,0,1,8,8v75.47c-.04.03-.08.07-.12.1L52.57,302.88a24.009,24.009,0,0,0,0,33.95l50.91,50.91a8,8,0,1,0,11.32-11.32L63.89,325.51a7.979,7.979,0,0,1,0-11.31L75.2,302.89a8.429,8.429,0,0,1,1.23-1.02,8.011,8.011,0,0,1,10.08,1.02c.08.07.16.15.24.22l70.75,65.16a7.968,7.968,0,0,1,2.57,5.89Z"/><path fill="#ffffff"  d="M472.07,192h-16a24.032,24.032,0,0,0-24,24v68.57a23.983,23.983,0,0,0-17.7,6.88l-70.62,65.04A24.029,24.029,0,0,0,336,374.2l.07,33.8v88a8,8,0,0,0,8,8h80a8,8,0,0,0,8-8V470.56a8.083,8.083,0,0,1,2.3-5.62l54.85-55.68a23.879,23.879,0,0,0,6.85-16.79V216A24.032,24.032,0,0,0,472.07,192Zm8,200.47a7.965,7.965,0,0,1-2.27,5.59l-54.82,55.65a23.82,23.82,0,0,0-6.91,16.85V488h-64V407.98L352,374.16a8.006,8.006,0,0,1,.67-3.22,8.129,8.129,0,0,1,1.91-2.68l70.74-65.15c.08-.07.16-.15.24-.22a8.01,8.01,0,0,1,10.08-1.02,7.835,7.835,0,0,1,1.23,1.02l11.31,11.31a7.979,7.979,0,0,1,0,11.31l-50.91,50.91a8,8,0,0,0,11.32,11.32l50.91-50.91a24.009,24.009,0,0,0,0-33.95l-11.31-11.31a1.059,1.059,0,0,0-.12-.1V216a8.011,8.011,0,0,1,8-8h16a8.011,8.011,0,0,1,8,8Z"/><path fill="#ffffff"  d="M424,176C424,83.364,348.636,8,256,8S88,83.364,88,176s75.364,168,168,168S424,268.636,424,176Zm-25.029-51.615q2.066,5.7,3.677,11.615H395.1ZM161.043,57.4l7.6,17.746A8,8,0,0,0,176,80h16.938l6.639,53.11L186.9,145.783,165.578,160h-33.9l-21.906-25.557A152.422,152.422,0,0,1,161.043,57.4Zm64.3,258.158a8,8,0,0,0-.772,7.409l.769,1.921a152.172,152.172,0,0,1-87.3-53.139l20.772-6.926,44.744,29.829a8,8,0,0,0,2.869,1.189l28.286,5.657ZM256,328q-6.255,0-12.387-.507l-2.622-6.557,13.665-20.5a8,8,0,0,0-5.087-12.283l-38.448-7.689-46.683-31.122a8,8,0,0,0-6.968-.933l-29.287,9.765a151.8,151.8,0,0,1-22.6-104.041l16.347,19.072A8,8,0,0,0,128,176h40a7.993,7.993,0,0,0,4.438-1.344l24-16a8.052,8.052,0,0,0,1.219-1l16-16a8,8,0,0,0,2.281-6.649l-8-64A8,8,0,0,0,200,64H181.276l-6.922-16.158A151.726,151.726,0,0,1,364.886,70.061l-57.079,35.126a8,8,0,0,0-3.4,4.283l-16,48a8,8,0,0,0,1.932,8.187l16,16a8,8,0,0,0,7.6,2.1l24.813-6.2L343.567,192l-6.109,18.327-45.036,22.518A8,8,0,0,0,288,240v8a8,8,0,0,0,8,8h4.687l5.656,5.657a8.078,8.078,0,0,0,.857.743l32,24q.272.2.56.384l11.766,7.353A151.273,151.273,0,0,1,256,328Zm92.528-54.6-31.273-23.455-7.6-7.6c-.051-.051-.1-.1-.155-.15l38.076-19.038a8,8,0,0,0,4.011-4.625l8-24a7.992,7.992,0,0,0,0-5.06l-8-24a8,8,0,0,0-9.529-5.231l-27.606,6.9-9.3-9.3,13.517-40.55,56.91-35.022a152.667,152.667,0,0,1,13.674,20.673l-12.843,38.53A8,8,0,0,0,384,152h22.1a151.849,151.849,0,0,1-42.232,130.982Z"/><path fill="#ffffff"  d="M280,184H250.422l-21.984-14.656a8,8,0,0,0-11.094,2.218l-16,24a8,8,0,0,0,2.54,11.3l40,24a8,8,0,0,0,9.773-1.2l32-32A8,8,0,0,0,280,184Zm-33.24,29.926-27.449-16.469,6.908-10.363,17.343,11.562A7.993,7.993,0,0,0,248,200h12.687Z"/></g></svg>
