<svg id="Capa_1" enable-background="new 0 0 512 512" height="512" viewBox="0 0 512 512" width="512" xmlns="http://www.w3.org/2000/svg"><g><g fill="#e4936b"><path d="m256 154.701c-8.43 0-15.264-6.834-15.264-15.264v-20.569c0-8.43 6.834-15.264 15.264-15.264 8.43 0 15.264 6.834 15.264 15.264v20.569c0 8.431-6.834 15.264-15.264 15.264z"/><path d="m327.629 184.371c-5.961-5.961-5.961-15.625 0-21.586l14.545-14.545c5.961-5.961 15.625-5.961 21.586 0 5.961 5.961 5.961 15.625 0 21.586l-14.545 14.545c-5.961 5.961-15.625 5.961-21.586 0z"/><path d="m357.299 256c0-8.43 6.834-15.264 15.264-15.264h20.569c8.43 0 15.264 6.834 15.264 15.264 0 8.43-6.834 15.264-15.264 15.264h-20.569c-8.43 0-15.264-6.834-15.264-15.264z"/><path d="m184.371 184.371c5.961-5.961 5.961-15.625 0-21.586l-14.545-14.545c-5.961-5.961-15.625-5.961-21.586 0-5.961 5.961-5.961 15.625 0 21.586l14.545 14.545c5.961 5.961 15.625 5.961 21.586 0z"/><path d="m256 357.299c-8.43 0-15.264 6.834-15.264 15.264v20.569c0 8.43 6.834 15.264 15.264 15.264 8.43 0 15.264-6.834 15.264-15.264v-20.569c0-8.43-6.834-15.264-15.264-15.264z"/><path d="m327.629 327.629c-5.961 5.961-5.961 15.625 0 21.586l14.545 14.545c5.961 5.961 15.625 5.961 21.586 0 5.961-5.961 5.961-15.625 0-21.586l-14.545-14.545c-5.961-5.961-15.625-5.961-21.586 0z"/><path d="m184.371 327.629c5.961 5.961 5.961 15.625 0 21.586l-14.545 14.545c-5.961 5.961-15.625 5.961-21.586 0-5.961-5.961-5.961-15.625 0-21.586l14.545-14.545c5.961-5.961 15.625-5.961 21.586 0z"/><path d="m154.701 256c0-8.43-6.834-15.264-15.264-15.264h-20.569c-8.43 0-15.264 6.834-15.264 15.264 0 8.43 6.834 15.264 15.264 15.264h20.569c8.431 0 15.264-6.834 15.264-15.264z"/></g><circle cx="256" cy="256" fill="#f4dd45" r="71.561"/><path d="m265.686 185.09c12.778 12.926 20.667 30.695 20.667 50.307 0 39.522-32.039 71.561-71.561 71.561-3.285 0-6.519-.222-9.686-.65 12.972 13.123 30.983 21.254 50.893 21.254 39.522 0 71.561-32.039 71.561-71.561.001-36.238-26.933-66.183-61.874-70.911z" fill="#eab14d"/><path d="m210.194 263.726c-4.267 0-7.726-3.459-7.726-7.726 0-29.518 24.015-53.532 53.532-53.532 4.267 0 7.726 3.459 7.726 7.726s-3.459 7.726-7.726 7.726c-20.997 0-38.079 17.083-38.079 38.079 0 4.268-3.46 7.727-7.727 7.727z" fill="#f9efaf"/><path d="m447.506 223.511 50.083-32.291-5.638 74.575-19.403-3.921z" fill="#698ed5"/><path d="m64.494 288.489c-19.792-121.351 73.792-226.649 191.506-226.649 70.541 0 134.538 37.826 168.786 98.071l-25.352 5.926c-2.192.512-3.007 3.205-1.467 4.847l76.542 81.623c1.54 1.642 4.279 1.001 4.931-1.153l32.431-107.094c.652-2.154-1.272-4.207-3.464-3.695l-27.677 6.469c-41.676-85.858-128.466-140.619-224.73-140.619-158.826 0-283.505 149.004-241.589 314.565z" fill="#80cb8e"/><path d="m474.509 252.306-27.003-28.795c19.792 121.351-73.792 226.649-191.506 226.649-70.541 0-134.538-37.826-168.786-98.071l25.352-5.926c2.192-.512 3.007-3.205 1.467-4.847l-76.542-81.623c-1.54-1.642-4.279-1.001-4.931 1.153l-32.431 107.094c-.652 2.154 1.272 4.207 3.464 3.695l27.677-6.469c41.676 85.858 128.466 140.619 224.73 140.619 158.826 0 283.505-149.004 241.589-314.564l-18.149 59.933c-.652 2.154-3.392 2.794-4.931 1.152z" fill="#698ed5"/><path d="m497.589 191.22-18.149 59.933c-.652 2.154-3.392 2.794-4.931 1.153l-10.009-10.672c-3.322 134.862-114.061 243.548-249.708 243.548-31.72 0-62.411-5.946-90.798-16.991 38.76 24.098 84.215 37.595 132.005 37.595 158.827-.001 283.506-149.005 241.59-314.566z" fill="#4073c8"/><path d="m508.407 140.365-27.677 6.469c-27.943-57.567-76.168-101.153-133.932-123.628 70.575 43.878 118.95 122.904 118.799 219.597l8.912 9.503c1.54 1.642 4.279 1.002 4.931-1.153l32.431-107.094c.652-2.154-1.272-4.206-3.464-3.694z" fill="#66b49d"/></g></svg>