<svg id="Capa_1" enable-background="new 0 0 512 512" height="512" viewBox="0 0 512 512" width="512" xmlns="http://www.w3.org/2000/svg"><g><path d="m447.506 223.511 50.083-32.291-5.638 74.575-19.403-3.921z" fill="#698ed5"/><path d="m64.494 288.489c-19.792-121.351 73.792-226.649 191.506-226.649 70.541 0 134.538 37.826 168.786 98.071l-25.352 5.926c-2.192.512-3.007 3.205-1.467 4.847l76.542 81.623c1.54 1.642 4.279 1.001 4.931-1.153l32.431-107.094c.652-2.154-1.272-4.207-3.464-3.695l-27.677 6.469c-41.676-85.858-128.466-140.619-224.73-140.619-158.826 0-283.505 149.004-241.589 314.565z" fill="#80cb8e"/><path d="m474.509 252.306-27.003-28.795c19.792 121.351-73.792 226.649-191.506 226.649-70.541 0-134.538-37.826-168.786-98.071l25.352-5.926c2.192-.512 3.007-3.205 1.467-4.847l-76.542-81.623c-1.54-1.642-4.279-1.001-4.931 1.153l-32.431 107.094c-.652 2.154 1.272 4.207 3.464 3.695l27.677-6.469c41.676 85.858 128.466 140.619 224.73 140.619 158.826 0 283.505-149.004 241.589-314.564l-18.149 59.933c-.652 2.154-3.392 2.794-4.931 1.152z" fill="#698ed5"/><path d="m497.589 191.22-18.149 59.933c-.652 2.154-3.392 2.794-4.931 1.153l-10.009-10.672c-3.322 134.862-114.061 243.548-249.708 243.548-31.72 0-62.411-5.946-90.798-16.991 38.76 24.098 84.215 37.595 132.005 37.595 158.827-.001 283.506-149.005 241.59-314.566z" fill="#4073c8"/><path d="m508.407 140.365-27.677 6.469c-27.943-57.567-76.168-101.153-133.932-123.628 70.575 43.878 118.95 122.904 118.799 219.597l8.912 9.503c1.54 1.642 4.279 1.002 4.931-1.153l32.431-107.094c.652-2.154-1.272-4.206-3.464-3.694z" fill="#66b49d"/><path d="m256 234.958c-11.146 0-20.182-9.036-20.182-20.182v-66.468c0-11.146 9.036-20.182 20.182-20.182 11.146 0 20.182 9.036 20.182 20.182v66.468c0 11.146-9.036 20.182-20.182 20.182z" fill="#f4dd45"/><path d="m304.867 186.706v.003c0 5.662 2.417 11.029 6.581 14.865 17.013 15.673 27.393 38.442 26.393 63.56-1.67 41.979-35.433 76.229-77.386 78.463-47.178 2.512-86.363-35.148-86.363-81.789 0-23.811 10.213-45.282 26.489-60.261 4.155-3.824 6.551-9.189 6.551-14.836 0-17.56-20.879-26.615-33.796-14.721-24.278 22.356-39.47 54.431-39.403 90.052.126 67.466 55.81 122.48 123.273 121.827 66.861-.647 120.861-55.048 120.861-122.061 0-35.638-15.272-67.709-39.629-90.026-12.841-11.765-33.571-2.491-33.571 14.924z" fill="#f4dd45"/><path d="m338.438 171.782c-7.388-6.769-17.388-6.573-24.548-1.869 14.455 20.057 22.971 44.679 22.971 71.291 0 2.177-.057 4.341-.17 6.489.983 5.639 1.389 11.473 1.151 17.44-1.202 30.221-19.038 56.436-44.587 69.584-20.931 17.58-47.849 28.263-77.255 28.548-11.714.113-23.073-1.452-33.848-4.469 20.857 15.944 46.933 25.345 75.055 25.073 66.86-.647 120.861-55.048 120.861-122.061-.001-35.638-15.273-67.709-39.63-90.026z" fill="#eab14d"/></g></svg>