<svg id="Capa_1" enable-background="new 0 0 512 512" height="512" viewBox="0 0 512 512" width="512" xmlns="http://www.w3.org/2000/svg"><g><path d="m447.506 223.511 50.083-32.291-5.638 74.575-19.403-3.921z" fill="#698ed5"/><path d="m64.494 288.489c-19.792-121.351 73.792-226.649 191.506-226.649 70.541 0 134.538 37.826 168.786 98.071l-25.352 5.926c-2.192.512-3.007 3.205-1.467 4.847l76.542 81.623c1.54 1.642 4.279 1.001 4.931-1.153l32.431-107.094c.652-2.154-1.272-4.207-3.464-3.695l-27.677 6.469c-41.676-85.858-128.466-140.619-224.73-140.619-158.826 0-283.505 149.004-241.589 314.565z" fill="#80cb8e"/><path d="m474.509 252.306-27.003-28.795c19.792 121.351-73.792 226.649-191.506 226.649-70.541 0-134.538-37.826-168.786-98.071l25.352-5.926c2.192-.512 3.007-3.205 1.467-4.847l-76.542-81.623c-1.54-1.642-4.279-1.001-4.931 1.153l-32.431 107.094c-.652 2.154 1.272 4.207 3.464 3.695l27.677-6.469c41.676 85.858 128.466 140.619 224.73 140.619 158.826 0 283.505-149.004 241.589-314.564l-18.149 59.933c-.652 2.154-3.392 2.794-4.931 1.152z" fill="#698ed5"/><path d="m497.589 191.22-18.149 59.933c-.652 2.154-3.392 2.794-4.931 1.153l-10.009-10.672c-3.322 134.862-114.061 243.548-249.708 243.548-31.72 0-62.411-5.946-90.798-16.991 38.76 24.098 84.215 37.595 132.005 37.595 158.827-.001 283.506-149.005 241.59-314.566z" fill="#4073c8"/><path d="m508.407 140.365-27.677 6.469c-27.943-57.567-76.168-101.153-133.932-123.628 70.575 43.878 118.95 122.904 118.799 219.597l8.912 9.503c1.54 1.642 4.279 1.002 4.931-1.153l32.431-107.094c.652-2.154-1.272-4.206-3.464-3.694z" fill="#66b49d"/><g fill="#f9efaf"><path d="m335.053 180.834c0 16.572-13.435 30.007-30.007 30.007h-144.574c-8.261 0-15.348-6.463-15.498-14.723-.154-8.415 6.621-15.284 15.001-15.284h145.071-28.349c-8.261 0-15.348-6.463-15.499-14.723-.154-8.415 6.622-15.284 15.001-15.284h28.847c16.572 0 30.007 13.435 30.007 30.007z"/><path d="m366.64 331.166c0-16.572-13.435-30.007-30.007-30.007h-188.164c-8.261 0-15.348 6.463-15.498 14.723-.154 8.415 6.621 15.284 15.001 15.284h188.661-40.352c-8.261 0-15.348 6.463-15.499 14.723-.154 8.415 6.622 15.284 15.001 15.284h40.85c16.572 0 30.007-13.435 30.007-30.007z"/><path d="m377.442 271.004h-257.39c-8.261 0-15.348-6.463-15.499-14.723-.154-8.415 6.622-15.284 15.001-15.284h257.888-10.346c-8.261 0-15.347-6.462-15.499-14.722-.154-8.415 6.621-15.285 15.001-15.285h10.844c16.572 0 30.007 13.435 30.007 30.007 0 16.572-13.434 30.007-30.007 30.007z"/></g><path d="m377.442 225.996h-25.847c0 .093.001.185.002.278.151 8.259 7.238 14.722 15.499 14.722h10.346c4.142 0 7.5-3.358 7.5-7.5s-3.358-7.5-7.5-7.5z" fill="#f4dd45"/><path d="m336.633 331.166c4.142 0 7.5-3.358 7.5-7.5s-3.358-7.5-7.5-7.5h-203.664c.002 8.285 6.718 15 15.003 15z" fill="#f4dd45"/><path d="m305.045 165.834h-43.85c0 .092.001.184.002.277.151 8.26 7.237 14.723 15.499 14.723h28.349c4.142 0 7.5-3.358 7.5-7.5s-3.357-7.5-7.5-7.5z" fill="#f4dd45"/></g></svg>