<svg id="Capa_1" enable-background="new 0 0 512 512" height="512" viewBox="0 0 512 512" width="512" xmlns="http://www.w3.org/2000/svg"><g><path d="m447.506 223.511 50.083-32.291-5.638 74.575-19.403-3.921z" fill="#698ed5"/><path d="m64.494 288.489c-19.792-121.351 73.792-226.649 191.506-226.649 70.541 0 134.538 37.826 168.786 98.071l-25.352 5.926c-2.192.512-3.007 3.205-1.467 4.847l76.542 81.623c1.54 1.642 4.279 1.001 4.931-1.153l32.431-107.094c.652-2.154-1.272-4.207-3.464-3.695l-27.677 6.469c-41.676-85.858-128.466-140.619-224.73-140.619-158.826 0-283.505 149.004-241.589 314.565z" fill="#80cb8e"/><path d="m474.509 252.306-27.003-28.795c19.792 121.351-73.792 226.649-191.506 226.649-70.541 0-134.538-37.826-168.786-98.071l25.352-5.926c2.192-.512 3.007-3.205 1.467-4.847l-76.542-81.623c-1.54-1.642-4.279-1.001-4.931 1.153l-32.431 107.094c-.652 2.154 1.272 4.207 3.464 3.695l27.677-6.469c41.676 85.858 128.466 140.619 224.73 140.619 158.826 0 283.505-149.004 241.589-314.564l-18.149 59.933c-.652 2.154-3.392 2.794-4.931 1.152z" fill="#698ed5"/><path d="m497.589 191.22-18.149 59.933c-.652 2.154-3.392 2.794-4.931 1.153l-10.009-10.672c-3.322 134.862-114.061 243.548-249.708 243.548-31.72 0-62.411-5.946-90.798-16.991 38.76 24.098 84.215 37.595 132.005 37.595 158.827-.001 283.506-149.005 241.59-314.566z" fill="#4073c8"/><path d="m508.407 140.365-27.677 6.469c-27.943-57.567-76.168-101.153-133.932-123.628 70.575 43.878 118.95 122.904 118.799 219.597l8.912 9.503c1.54 1.642 4.279 1.002 4.931-1.153l32.431-107.094c.652-2.154-1.272-4.206-3.464-3.694z" fill="#66b49d"/><path d="m357.147 294.581c0 57.047-45.285 103.292-101.147 103.292s-101.147-46.245-101.147-103.292 70.074-180.454 101.147-180.454 101.147 123.407 101.147 180.454z" fill="#bed8fb"/><path d="m256 114.127c-2.839 0-6.003 1.03-9.409 2.945 32.196 38.645 69.349 115.367 69.349 156.905 0 57.047-45.285 103.292-101.147 103.292-7.799 0-15.391-.902-22.684-2.608 17.418 14.51 39.659 23.212 63.891 23.212 55.862 0 101.147-46.245 101.147-103.292s-70.074-180.454-101.147-180.454z" fill="#9dc6fb"/><g fill="#ddeafb"><path d="m204.042 253.759c-.171-.063-.342-.125-.511-.187-6.809-2.485-14.332 1.237-16.487 8.158-.04.13-.081.26-.121.39-2.01 6.496 1.371 13.433 7.758 15.768.138.05.276.101.415.152 6.86 2.524 14.401-1.254 16.569-8.235.027-.086.053-.172.08-.258 2.022-6.484-1.329-13.445-7.703-15.788z"/><path d="m240.91 175.331c-5.712-2.239-12.224-.131-15.495 5.059-4.18 6.633-8.569 14.132-13.077 22.541-1.671 3.116-3.29 6.233-4.854 9.341-3.43 6.815-.17 15.08 6.974 17.758.083.031.165.062.248.093 6.11 2.297 12.978-.392 15.91-6.224 1.449-2.881 2.962-5.796 4.538-8.736 4.244-7.915 8.343-14.905 12.192-21.011 4.279-6.788 1.284-15.795-6.186-18.724z"/></g></g></svg>