<svg height="512" viewBox="0 0 512 512" width="512" xmlns="http://www.w3.org/2000/svg"><path d="m376 208a119.569 119.569 0 0 1 -40.58 89.89c-14.47 12.78-23.42 30.66-23.42 49.96v4.15h-112v-2.75a64.738 64.738 0 0 0 -1.21-12.49 71.908 71.908 0 0 0 -22.95-39.52 119.6 119.6 0 0 1 -39.74-94.13c2.44-61.41 52.82-112.14 114.21-114.98a120 120 0 0 1 125.69 119.87z" fill="#d0d24b"/><path d="m376 208a119.569 119.569 0 0 1 -40.58 89.89c-14.47 12.78-23.42 30.66-23.42 49.96v4.15h-112v-2.75a64.738 64.738 0 0 0 -1.21-12.49c52.33-36.51 117.31-99.79 153.5-200.38a119.493 119.493 0 0 1 23.71 71.62z" fill="#c9cb45"/><path d="m200 352h112a0 0 0 0 1 0 0v48a16 16 0 0 1 -16 16h-80a16 16 0 0 1 -16-16v-48a0 0 0 0 1 0 0z" fill="#e0e0de"/><path d="m280 352v48a16 16 0 0 1 -16 16h32a16 16 0 0 0 16-16v-48z" fill="#d6d6d4"/><path d="m408 400v88h-179.99a47.844 47.844 0 0 1 -17.39-3.27c-1.03-.39-2.05-.83-3.05-1.3l-89.03-41.88a25.308 25.308 0 0 1 -13.26-30.85 24.937 24.937 0 0 1 34.18-14.91l76.54 36.21h16a24 24 0 0 1 0-48h56l2.41-1.61a85.685 85.685 0 0 1 101.06 4.39l3.94 3.15z" fill="#fec9a3"/><rect fill="#f5af7d" height="16" rx="8" width="72.004" x="215.996" y="424"/><path d="m408 400v88h-179.99a47.844 47.844 0 0 1 -17.39-3.27c55.53-12.71 130.03-39.34 184.79-94.8z" fill="#fec093"/><path d="m320 144a0 0 0 0 1 0 0 64 64 0 0 1 -64 64 0 0 0 0 1 0 0 64 64 0 0 1 64-64z" fill="#5f9548" transform="matrix(-1 0 0 -1 576 352)"/><path d="m248 208h16v144h-16z" fill="#5f9548"/><path d="m336 216a0 0 0 0 1 0 0 80 80 0 0 1 -80 80 0 0 0 0 1 0 0 80 80 0 0 1 80-80z" fill="#5f9548" transform="matrix(-1 0 0 -1 592 512)"/><path d="m192 144a64 64 0 0 1 64 64 0 0 0 0 1 0 0 64 64 0 0 1 -64-64 0 0 0 0 1 0 0z" fill="#7eb457"/><path d="m176 216a80 80 0 0 1 80 80 0 0 0 0 1 0 0 80 80 0 0 1 -80-80 0 0 0 0 1 0 0z" fill="#7eb457"/><path d="m408 376h80v112h-80z" fill="#7eb457"/><path d="m408 448h80v40h-80z" fill="#77ad50"/><path d="m432 448h16v16h-16z" fill="#5f943a"/><g fill="#dee051"><path d="m248 16h16v32h-16z"/><path d="m180.646 29.395h16v32.002h-16z" transform="matrix(.924 -.383 .383 .924 -3.013 75.644)"/><path d="m123.55 67.548h15.998v32.002h-15.998z" transform="matrix(.707 -.707 .707 .707 -20.548 117.49)"/><path d="m372.452 316.45h15.998v32.002h-15.998z" transform="matrix(.707 -.707 .707 .707 -123.647 366.392)"/><path d="m85.396 124.645h16v32.002h-16z" transform="matrix(.383 -.924 .924 .383 -72.285 173.114)"/><path d="m410.604 259.352h16v32.002h-16z" transform="matrix(.383 -.924 .924 .383 4.023 556.728)"/><path d="m64 200h32v16h-32z"/><path d="m416 200h32v16h-32z"/><path d="m77.395 267.354h32.002v16h-32.002z" transform="matrix(.924 -.383 .383 .924 -98.294 56.728)"/><path d="m402.602 132.646h32.002v16h-32.002z" transform="matrix(.924 -.383 .383 .924 -21.955 170.96)"/><path d="m115.548 324.452h32.002v15.998h-32.002z" transform="matrix(.707 -.707 .707 .707 -196.549 190.392)"/><path d="m364.45 75.55h32.002v15.998h-32.002z" transform="matrix(.707 -.707 .707 .707 52.354 293.49)"/><path d="m307.352 37.396h32.002v16h-32.002z" transform="matrix(.383 -.924 .924 .383 157.632 326.741)"/></g></svg>