<?xml version="1.0" encoding="iso-8859-1"?>
<!-- Generator: Adobe Illustrator 19.0.0, SVG Export Plug-In . SVG Version: 6.00 Build 0)  -->
<svg version="1.1" id="Capa_1" xmlns="http://www.w3.org/2000/svg" xmlns:xlink="http://www.w3.org/1999/xlink" x="0px" y="0px"
	 viewBox="0 0 472.001 472.001" style="enable-background:new 0 0 472.001 472.001;" xml:space="preserve">
<path style="fill:#88B337;" d="M150.169,182.001c14.466-16.556,12.771-41.704-3.785-56.17c-7.303-6.381-16.685-9.877-26.383-9.83
	c-0.72,0-1.392,0.176-2.104,0.208c1.338-3.934,2.048-8.053,2.104-12.208c0-22.091-17.909-40-40-40s-40,17.909-40,40
	c0.056,4.155,0.766,8.274,2.104,12.208c-0.712,0-1.384-0.208-2.104-0.208c-21.985-0.105-39.893,17.632-39.998,39.617
	c-0.046,9.698,3.449,19.08,9.83,26.383c-13.721,15.638-13.001,39.227,1.648,54c-15.464,15.776-15.211,41.102,0.566,56.566
	c7.466,7.318,17.5,11.422,27.954,11.434h80c22.091-0.025,39.98-17.954,39.954-40.046c-0.012-10.454-4.116-20.488-11.434-27.954
	C163.17,221.228,163.89,197.639,150.169,182.001z"/>
<g>
	<path style="fill:#618C20;" d="M80.001,376.001c-4.418,0-8-3.582-8-8v-240c0-4.418,3.582-8,8-8s8,3.582,8,8v240
		C88.001,372.419,84.419,376.001,80.001,376.001z"/>
	<path style="fill:#618C20;" d="M80.001,200.001c-2.122,0-4.156-0.844-5.656-2.344l-32-32c-3.069-3.178-2.981-8.243,0.197-11.312
		c3.1-2.994,8.015-2.994,11.115,0l32,32c3.124,3.125,3.123,8.19-0.002,11.314C84.156,199.158,82.122,200,80.001,200.001
		L80.001,200.001z"/>
	<path style="fill:#618C20;" d="M80.001,272.001c-2.122,0-4.156-0.844-5.656-2.344l-32-32c-3.069-3.178-2.981-8.243,0.197-11.312
		c3.1-2.994,8.015-2.994,11.115,0l32,32c3.124,3.125,3.123,8.19-0.002,11.314C84.156,271.158,82.122,272,80.001,272.001z"/>
</g>
<path style="fill:#DEDEDE;" d="M256.001,472.001h-256v-160l128-128l128,128V472.001z"/>
<path style="fill:#CFCFCF;" d="M256.001,312.001h208v160h-208V312.001z"/>
<path style="fill:#4398D1;" d="M128.001,184.001l128,128h208l-128-128H128.001z"/>
<path style="fill:#3E8CC7;" d="M464.001,312.001l-116-116l-104,104l12,12H464.001z"/>
<path style="fill:#3570AB;" d="M88.001,360.001h80v112h-80V360.001z"/>
<g>
	<path style="fill:#FDB62F;" d="M376.001,0.001h16v16h-16V0.001z"/>
	<path style="fill:#FDB62F;" d="M376.001,160.001h16v16h-16V160.001z"/>
	<path style="fill:#FDB62F;" d="M296.001,80.001h16v16h-16V80.001z"/>
	<path style="fill:#FDB62F;" d="M456.001,80.001h16v16h-16V80.001z"/>
	<path style="fill:#FDB62F;" d="M316.12,31.431l11.314-11.314l11.314,11.314l-11.314,11.314L316.12,31.431z"/>
	<path style="fill:#FDB62F;" d="M429.255,144.567l11.314-11.314l11.314,11.314l-11.314,11.314L429.255,144.567z"/>
	<path style="fill:#FDB62F;" d="M316.12,144.567l11.314-11.314l11.314,11.314l-11.314,11.314L316.12,144.567z"/>
	<path style="fill:#FDB62F;" d="M429.256,31.431l11.314-11.314l11.314,11.314l-11.314,11.314L429.256,31.431z"/>
	<circle style="fill:#FDB62F;" cx="384.001" cy="88.001" r="48"/>
</g>
<path style="fill:#F7A72E;" d="M344.801,115.681c15.071,21.809,44.969,27.27,66.777,12.199
	c21.809-15.071,27.27-44.969,12.199-66.777c-0.926-1.34-1.919-2.631-2.976-3.87C401.546,83.55,375.18,103.827,344.801,115.681z"/>
<path style="fill:#3570AB;" d="M365.753,272.001h58.248l-16-16h-57.6l-23-24h56.6l-16-16h-55.92l-30.664-32h-22.168l30.672,32
	h-41.712l-30.72-32h-22.176l30.72,32h-66.032l16,16h65.392l23.04,24h-64.432l16,16h63.792l38.4,40h22.176l-38.4-40h41.6l38.336,40
	h22.16L365.753,272.001z M286.609,256.001l-23.04-24h41.68l23,24H286.609z"/>
<g>
</g>
<g>
</g>
<g>
</g>
<g>
</g>
<g>
</g>
<g>
</g>
<g>
</g>
<g>
</g>
<g>
</g>
<g>
</g>
<g>
</g>
<g>
</g>
<g>
</g>
<g>
</g>
<g>
</g>
</svg>
