<svg xmlns="http://www.w3.org/2000/svg" width="78.013" height="78" viewBox="0 0 78.013 78">
  <g id="_1358533" data-name="1358533" transform="translate(0 -0.039)">
    <path id="Path_29306" data-name="Path 29306" d="M238.734,98.909a3.9,3.9,0,0,0-7.15-.936l-.65,1.131a1.3,1.3,0,0,0-1.768.468l-3.3,5.628-1.131-.65a1.3,1.3,0,1,0-1.3,2.249l1.131.65L213.514,126.6l-2.73,7.293-1.3,2.431a3.9,3.9,0,0,0,.208,4.212l-2.925,3.588-.819-2.053a2.6,2.6,0,0,0-4.641-.364l-.468.793-.442-5.2a2.6,2.6,0,0,0-5.057-.611l-3.2,9.594a1.3,1.3,0,0,0,.819,1.638,1.126,1.126,0,0,0,.4.1,1.3,1.3,0,0,0,1.235-.884l3.185-9.594.455,5.277a2.6,2.6,0,0,0,4.823,1.118l.481-.793.806,2.041a2.6,2.6,0,0,0,4.446.663l3.029-3.835a4,4,0,0,0,1.027.13,3.9,3.9,0,0,0,3.393-1.925l1.3-2.171,4.953-6.019,11.167-19.383,1.131.65a1.3,1.3,0,0,1,.481,1.781l-5.2,9.009a1.291,1.291,0,1,0,2.2,1.352l5.2-9.009a3.9,3.9,0,0,0-1.43-5.33l-1.131-.65,3.25-5.629a1.3,1.3,0,0,0-.468-1.768l.65-1.131a3.9,3.9,0,0,0,.39-3.016Zm-4.9.364a1.3,1.3,0,0,1,.793-.611,1.365,1.365,0,0,1,.988.13,1.3,1.3,0,0,1,.611.793,1.365,1.365,0,0,1-.13.988l-.65,1.131-2.262-1.3Zm-17.719,36.3-.65-.377-1.924-1.118,1.846-4.94,4.095,2.366Zm-3.9,3.757a1.3,1.3,0,0,1-.39-1.7l.65-1.131,2.262,1.3-.65,1.118a1.3,1.3,0,0,1-1.872.416Zm8.749-9.958-4.5-2.6,10.4-18.018,4.5,2.6Zm11.7-20.267-4.5-2.6,2.6-4.5,4.5,2.6Zm0,0" transform="translate(-160.864 -80.384)" fill="#4ab75e"/>
    <path id="Path_29307" data-name="Path 29307" d="M76.888,356.909l-4.6,4.589-2.756-2.756a1.3,1.3,0,1,0-1.833,1.846l2.756,2.756a2.621,2.621,0,0,0,3.679,0l4.589-4.6a1.3,1.3,0,0,0-1.833-1.833Zm0,0" transform="translate(-56.374 -298.617)" fill="#4ab75e"/>
    <path id="Path_29308" data-name="Path 29308" d="M32,323.091a11.05,11.05,0,1,0,22.1,0,1.3,1.3,0,0,0-2.6,0,8.451,8.451,0,1,1-3.38-6.76,1.3,1.3,0,0,0,1.56-2.08A11.05,11.05,0,0,0,32,323.091Zm0,0" transform="translate(-26.8 -261.302)" fill="#4ab75e"/>
    <path id="Path_29309" data-name="Path 29309" d="M107.1,50.639a1.3,1.3,0,1,0,0-2.6H73.3a1.3,1.3,0,0,0-1.3,1.3v5.2a1.3,1.3,0,0,0,1.3,1.3h33.8a1.3,1.3,0,1,0,0-2.6H74.6v-2.6Zm0,0" transform="translate(-60.3 -40.2)" fill="#4ab75e"/>
    <path id="Path_29310" data-name="Path 29310" d="M97.3,112.039a1.3,1.3,0,0,0,0,2.6h26a1.3,1.3,0,0,0,0-2.6Zm0,0" transform="translate(-80.4 -93.8)" fill="#4ab75e"/>
    <path id="Path_29311" data-name="Path 29311" d="M157.9,168.039H129.3a1.3,1.3,0,1,0,0,2.6h28.6a1.3,1.3,0,1,0,0-2.6Zm0,0" transform="translate(-107.2 -140.7)" fill="#4ab75e"/>
    <path id="Path_29312" data-name="Path 29312" d="M84.6,217.339a1.3,1.3,0,0,0-1.3-1.3h-26a1.3,1.3,0,0,0,0,2.6h26A1.3,1.3,0,0,0,84.6,217.339Zm0,0" transform="translate(-46.9 -180.9)" fill="#4ab75e"/>
    <path id="Path_29313" data-name="Path 29313" d="M258.4,216.039h-9.1a1.3,1.3,0,1,0,0,2.6h9.1a1.3,1.3,0,1,0,0-2.6Zm0,0" transform="translate(-207.7 -180.9)" fill="#4ab75e"/>
    <path id="Path_29314" data-name="Path 29314" d="M70.3,258.639a1.3,1.3,0,1,0,0-2.6h-13a1.3,1.3,0,0,0,0,2.6Zm0,0" transform="translate(-46.9 -214.4)" fill="#4ab75e"/>
    <path id="Path_29315" data-name="Path 29315" d="M169.3,258.639h9.1a1.3,1.3,0,1,0,0-2.6h-9.1a1.3,1.3,0,1,0,0,2.6Zm0,0" transform="translate(-140.7 -214.4)" fill="#4ab75e"/>
    <path id="Path_29316" data-name="Path 29316" d="M58.5,59.839a1.3,1.3,0,0,0-1.3,1.3v13a1.3,1.3,0,0,1-1.3,1.3H3.9a1.3,1.3,0,0,1-1.3-1.3V3.939a1.3,1.3,0,0,1,1.3-1.3h52a1.3,1.3,0,0,1,1.3,1.3V28.353a1.3,1.3,0,0,0,2.6,0V3.939a3.9,3.9,0,0,0-3.9-3.9H3.9A3.9,3.9,0,0,0,0,3.939v70.2a3.9,3.9,0,0,0,3.9,3.9h52a3.9,3.9,0,0,0,3.9-3.9v-13A1.3,1.3,0,0,0,58.5,59.839Zm0,0" fill="#4ab75e"/>
  </g>
</svg>
