<svg xmlns="http://www.w3.org/2000/svg" width="65" height="82.003" viewBox="0 0 65 82.003">
  <g id="_157588" data-name="157588" transform="translate(-48)">
    <path id="Path_29317" data-name="Path 29317" d="M113,32.5A32.5,32.5,0,1,0,73.5,64.239v9.439H67.748A2.748,2.748,0,0,0,65,76.424v2.834A2.748,2.748,0,0,0,67.748,82h25.5A2.748,2.748,0,0,0,96,79.257V76.424a2.748,2.748,0,0,0-2.745-2.745H87.5V64.239A32.555,32.555,0,0,0,113,32.5Zm-62.343,0A29.843,29.843,0,1,1,80.5,62.343,29.877,29.877,0,0,1,50.657,32.5ZM93.341,76.424v2.834a.089.089,0,0,1-.089.089h-25.5a.089.089,0,0,1-.089-.089V76.424a.089.089,0,0,1,.089-.089h25.5A.089.089,0,0,1,93.341,76.424Zm-8.5-2.745H76.161V64.71a32.557,32.557,0,0,0,8.678,0Z" fill="#4ab75e"/>
    <path id="Path_29318" data-name="Path 29318" d="M133.665,58.832a26.832,26.832,0,1,0-26.832,26.832A26.863,26.863,0,0,0,133.665,58.832Zm-51.008,0a24.176,24.176,0,1,1,24.176,24.176A24.2,24.2,0,0,1,82.657,58.832Z" transform="translate(-26.332 -26.332)" fill="#4ab75e"/>
    <path id="Path_29319" data-name="Path 29319" d="M205.579,122.749a5.576,5.576,0,0,0,3.244-10.113l3.168-7.92a1.328,1.328,0,0,0-2.467-.987l-3.167,7.917a5.579,5.579,0,1,0-.779,11.1Zm0-8.5a2.922,2.922,0,1,1-2.922,2.922A2.926,2.926,0,0,1,205.579,114.248Z" transform="translate(-125.079 -84.67)" fill="#4ab75e"/>
    <path id="Path_29320" data-name="Path 29320" d="M121.349,75.226a1.328,1.328,0,1,0,1.879-1.878L121.1,71.219a18.431,18.431,0,0,1,10.786-4.46v2.866a1.328,1.328,0,0,0,2.657,0V66.759a18.431,18.431,0,0,1,10.786,4.46L143.2,73.348a1.328,1.328,0,0,0,1.879,1.878l2.129-2.129a18.43,18.43,0,0,1,4.46,10.786H148.8a1.328,1.328,0,1,0,0,2.657h2.866a18.432,18.432,0,0,1-4.46,10.786L145.076,95.2a1.328,1.328,0,0,0-1.879,1.878l3.1,3.1a1.329,1.329,0,0,0,1.879,0,21.165,21.165,0,1,0-29.932,0,1.328,1.328,0,0,0,1.879,0l3.1-3.1A1.328,1.328,0,1,0,121.35,95.2l-2.129,2.129a18.43,18.43,0,0,1-4.459-10.786h2.866a1.328,1.328,0,1,0,0-2.657h-2.866A18.432,18.432,0,0,1,119.22,73.1Z" transform="translate(-52.713 -52.711)" fill="#4ab75e"/>
    <path id="Path_29321" data-name="Path 29321" d="M216.324,265.328A1.328,1.328,0,0,0,215,264h-5.668a1.328,1.328,0,1,0,0,2.657H215A1.328,1.328,0,0,0,216.324,265.328Z" transform="translate(-131.662 -217.243)" fill="#4ab75e"/>
  </g>
</svg>
