<svg xmlns="http://www.w3.org/2000/svg" width="81.999" height="82" viewBox="0 0 81.999 82">
  <g id="_1243536" data-name="1243536" transform="translate(0)">
    <path id="Path_29323" data-name="Path 29323" d="M68.3,9.293c-.011-.047-.039-.085-.053-.129a1.258,1.258,0,0,0-.091-.222,1.31,1.31,0,0,0-.153-.228,1.394,1.394,0,0,0-.156-.164,1.241,1.241,0,0,0-.224-.15,1.024,1.024,0,0,0-.486-.16,1.39,1.39,0,0,0-.174-.039H60.076C59.723,3.443,57.516,0,54.666,0s-5.057,3.443-5.409,8.2H46.409C46.057,3.443,43.849,0,41,0S35.943,3.443,35.59,8.2H32.742C32.39,3.443,30.182,0,27.333,0s-5.057,3.443-5.409,8.2H19.076C18.723,3.443,16.516,0,13.666,0S8.609,3.443,8.257,8.2H1.366A1.367,1.367,0,0,0,0,9.567V80.633A1.367,1.367,0,0,0,1.366,82h65.6a1.367,1.367,0,0,0,1.367-1.367v-4.1h12.3a1.367,1.367,0,0,0,1.338-1.64ZM54.666,2.733c.987,0,2.364,2.094,2.668,5.467H52C52.3,4.827,53.679,2.733,54.666,2.733ZM41,2.733c.987,0,2.364,2.094,2.668,5.467H38.337C38.635,4.827,40.013,2.733,41,2.733Zm-13.667,0C28.32,2.733,29.7,4.827,30,8.2H24.67c.3-3.373,1.676-5.467,2.663-5.467Zm-13.667,0c.987,0,2.364,2.094,2.668,5.467H11C11.3,4.827,12.679,2.733,13.666,2.733Zm-10.933,8.2H8.257c.352,4.757,2.56,8.2,5.409,8.2a1.367,1.367,0,1,0,0-2.733c-.987,0-2.364-2.094-2.668-5.467H21.924c.357,4.757,2.56,8.2,5.409,8.2a1.367,1.367,0,0,0,0-2.733c-.987,0-2.364-2.094-2.668-5.467H35.59c.357,4.757,2.56,8.2,5.409,8.2A1.367,1.367,0,0,0,41,16.4c-.987,0-2.364-2.094-2.668-5.467H49.257c.357,4.757,2.56,8.2,5.409,8.2a1.367,1.367,0,0,0,0-2.733c-.987,0-2.364-2.094-2.668-5.467H65.6V24.6H2.733ZM65.6,79.267H2.733V27.333H65.6ZM68.333,73.8V22.824L78.953,73.8Zm0,0" fill="#4ab75e"/>
    <path id="Path_29324" data-name="Path 29324" d="M142.833,288h-5.467A1.367,1.367,0,0,0,136,289.367v5.467a1.367,1.367,0,0,0,1.367,1.367h5.467a1.367,1.367,0,0,0,1.367-1.367v-5.467A1.367,1.367,0,0,0,142.833,288Zm-1.367,5.467h-2.733v-2.733h2.733Zm0,0" transform="translate(-112.767 -238.8)" fill="#4ab75e"/>
    <path id="Path_29325" data-name="Path 29325" d="M222.833,288h-5.467A1.367,1.367,0,0,0,216,289.367v5.467a1.367,1.367,0,0,0,1.367,1.367h5.467a1.367,1.367,0,0,0,1.367-1.367v-5.467A1.367,1.367,0,0,0,222.833,288Zm-1.367,5.467h-2.733v-2.733h2.733Zm0,0" transform="translate(-179.1 -238.8)" fill="#4ab75e"/>
    <path id="Path_29326" data-name="Path 29326" d="M62.833,288H57.367A1.367,1.367,0,0,0,56,289.367v5.467a1.367,1.367,0,0,0,1.367,1.367h5.467a1.367,1.367,0,0,0,1.367-1.367v-5.467A1.367,1.367,0,0,0,62.833,288Zm-1.367,5.467H58.733v-2.733h2.733Zm0,0" transform="translate(-46.434 -238.8)" fill="#4ab75e"/>
    <path id="Path_29327" data-name="Path 29327" d="M142.833,368h-5.467A1.367,1.367,0,0,0,136,369.367v5.467a1.367,1.367,0,0,0,1.367,1.367h5.467a1.367,1.367,0,0,0,1.367-1.367v-5.467A1.367,1.367,0,0,0,142.833,368Zm-1.367,5.467h-2.733v-2.733h2.733Zm0,0" transform="translate(-112.767 -305.133)" fill="#4ab75e"/>
    <path id="Path_29328" data-name="Path 29328" d="M222.833,368h-5.467A1.367,1.367,0,0,0,216,369.367v5.467a1.367,1.367,0,0,0,1.367,1.367h5.467a1.367,1.367,0,0,0,1.367-1.367v-5.467A1.367,1.367,0,0,0,222.833,368Zm-1.367,5.467h-2.733v-2.733h2.733Zm0,0" transform="translate(-179.1 -305.133)" fill="#4ab75e"/>
    <path id="Path_29329" data-name="Path 29329" d="M62.833,368H57.367A1.367,1.367,0,0,0,56,369.367v5.467a1.367,1.367,0,0,0,1.367,1.367h5.467a1.367,1.367,0,0,0,1.367-1.367v-5.467A1.367,1.367,0,0,0,62.833,368Zm-1.367,5.467H58.733v-2.733h2.733Zm0,0" transform="translate(-46.434 -305.133)" fill="#4ab75e"/>
    <path id="Path_29330" data-name="Path 29330" d="M142.833,208h-5.467A1.367,1.367,0,0,0,136,209.367v5.467a1.367,1.367,0,0,0,1.367,1.367h5.467a1.367,1.367,0,0,0,1.367-1.367v-5.467A1.367,1.367,0,0,0,142.833,208Zm-1.367,5.467h-2.733v-2.733h2.733Zm0,0" transform="translate(-112.767 -172.467)" fill="#4ab75e"/>
    <path id="Path_29331" data-name="Path 29331" d="M222.833,208h-5.467A1.367,1.367,0,0,0,216,209.367v5.467a1.367,1.367,0,0,0,1.367,1.367h5.467a1.367,1.367,0,0,0,1.367-1.367v-5.467A1.367,1.367,0,0,0,222.833,208Zm-1.367,5.467h-2.733v-2.733h2.733Zm0,0" transform="translate(-179.1 -172.467)" fill="#4ab75e"/>
    <path id="Path_29332" data-name="Path 29332" d="M302.833,288h-5.467A1.367,1.367,0,0,0,296,289.367v5.467a1.367,1.367,0,0,0,1.367,1.367h5.467a1.367,1.367,0,0,0,1.367-1.367v-5.467A1.367,1.367,0,0,0,302.833,288Zm-1.367,5.467h-2.733v-2.733h2.733Zm0,0" transform="translate(-245.434 -238.8)" fill="#4ab75e"/>
    <path id="Path_29333" data-name="Path 29333" d="M302.833,368h-5.467A1.367,1.367,0,0,0,296,369.367v5.467a1.367,1.367,0,0,0,1.367,1.367h5.467a1.367,1.367,0,0,0,1.367-1.367v-5.467A1.367,1.367,0,0,0,302.833,368Zm-1.367,5.467h-2.733v-2.733h2.733Zm0,0" transform="translate(-245.434 -305.133)" fill="#4ab75e"/>
    <path id="Path_29334" data-name="Path 29334" d="M302.833,208h-5.467A1.367,1.367,0,0,0,296,209.367v5.467a1.367,1.367,0,0,0,1.367,1.367h5.467a1.367,1.367,0,0,0,1.367-1.367v-5.467A1.367,1.367,0,0,0,302.833,208Zm-1.367,5.467h-2.733v-2.733h2.733Zm0,0" transform="translate(-245.434 -172.467)" fill="#4ab75e"/>
    <path id="Path_29335" data-name="Path 29335" d="M62.833,208H57.367A1.367,1.367,0,0,0,56,209.367v5.467a1.367,1.367,0,0,0,1.367,1.367h5.467a1.367,1.367,0,0,0,1.367-1.367v-5.467A1.367,1.367,0,0,0,62.833,208Zm-1.367,5.467H58.733v-2.733h2.733Zm0,0" transform="translate(-46.434 -172.467)" fill="#4ab75e"/>
  </g>
</svg>
