<svg xmlns="http://www.w3.org/2000/svg" width="79.504" height="79.504" viewBox="0 0 79.504 79.504">
  <g id="news" transform="translate(-2 -2)">
    <path id="Path_29336" data-name="Path 29336" d="M74.879,33.8H73.554V5.975A3.975,3.975,0,0,0,69.578,2H13.926A3.975,3.975,0,0,0,9.95,5.975V33.8H8.625A6.633,6.633,0,0,0,2,40.427V74.879A6.633,6.633,0,0,0,8.625,81.5H74.879A6.633,6.633,0,0,0,81.5,74.879V40.427A6.633,6.633,0,0,0,74.879,33.8Zm0,2.65a3.975,3.975,0,0,1,3.975,3.975v1.844l-5.3,2.742V36.452ZM12.6,5.975A1.325,1.325,0,0,1,13.926,4.65H69.578A1.325,1.325,0,0,1,70.9,5.975V46.383L41.752,61.461,12.126,46.138H12.6ZM41.144,64.13a1.325,1.325,0,0,0,1.216,0l6.126-3.164L66.38,78.854H17.124L35.013,60.965ZM8.625,36.452H9.95v8.561l-5.3-2.742V40.427a3.975,3.975,0,0,1,3.975-3.975ZM4.65,74.879V45.254l27.9,14.43-19.17,19.17H8.625A3.975,3.975,0,0,1,4.65,74.879Zm70.228,3.975H70.127L50.956,59.684l27.9-14.43V74.879A3.975,3.975,0,0,1,74.879,78.854Z" fill="#4ab75e"/>
    <path id="Path_29337" data-name="Path 29337" d="M35.325,19.251h21.2a1.325,1.325,0,0,0,1.325-1.325V7.325A1.325,1.325,0,0,0,56.526,6h-21.2A1.325,1.325,0,0,0,34,7.325v10.6A1.325,1.325,0,0,0,35.325,19.251ZM36.65,8.65H55.2V16.6H36.65Z" transform="translate(10.402 1.3)" fill="#4ab75e"/>
    <path id="Path_29338" data-name="Path 29338" d="M13.325,19.251h10.6a1.325,1.325,0,0,0,1.325-1.325V7.325A1.325,1.325,0,0,0,23.926,6h-10.6A1.325,1.325,0,0,0,12,7.325v10.6A1.325,1.325,0,0,0,13.325,19.251ZM14.65,8.65H22.6V16.6H14.65Z" transform="translate(3.251 1.3)" fill="#4ab75e"/>
    <path id="Path_29339" data-name="Path 29339" d="M24,6h2.65V8.65H24Z" transform="translate(7.151 1.3)" fill="#4ab75e"/>
    <path id="Path_29340" data-name="Path 29340" d="M28,6h5.3V8.65H28Z" transform="translate(8.452 1.3)" fill="#4ab75e"/>
    <path id="Path_29341" data-name="Path 29341" d="M24,10h5.3v2.65H24Z" transform="translate(7.151 2.601)" fill="#4ab75e"/>
    <path id="Path_29342" data-name="Path 29342" d="M30,10h2.65v2.65H30Z" transform="translate(9.102 2.601)" fill="#4ab75e"/>
    <path id="Path_29343" data-name="Path 29343" d="M24,14h2.65v2.65H24Z" transform="translate(7.151 3.901)" fill="#4ab75e"/>
    <path id="Path_29344" data-name="Path 29344" d="M28,14h5.3v2.65H28Z" transform="translate(8.452 3.901)" fill="#4ab75e"/>
    <path id="Path_29345" data-name="Path 29345" d="M13.325,33.9H63.678A1.325,1.325,0,0,0,65,32.576V19.325A1.325,1.325,0,0,0,63.678,18H13.325A1.325,1.325,0,0,0,12,19.325V32.576A1.325,1.325,0,0,0,13.325,33.9ZM14.65,20.65h47.7v10.6H14.65Z" transform="translate(3.251 5.201)" fill="#4ab75e"/>
    <path id="Path_29346" data-name="Path 29346" d="M12,32H27.9v2.65H12Z" transform="translate(3.251 9.752)" fill="#4ab75e"/>
    <path id="Path_29347" data-name="Path 29347" d="M26,32H41.9v2.65H26Z" transform="translate(7.802 9.752)" fill="#4ab75e"/>
    <path id="Path_29348" data-name="Path 29348" d="M40,32H55.9v2.65H40Z" transform="translate(12.352 9.752)" fill="#4ab75e"/>
    <path id="Path_29349" data-name="Path 29349" d="M26,40H39.251v2.65H26Z" transform="translate(7.802 12.352)" fill="#4ab75e"/>
    <path id="Path_29350" data-name="Path 29350" d="M19,36H38.876v2.65H19Z" transform="translate(5.526 11.052)" fill="#4ab75e"/>
    <path id="Path_29351" data-name="Path 29351" d="M38,40h2.65v2.65H38Z" transform="translate(11.702 12.352)" fill="#4ab75e"/>
    <path id="Path_29352" data-name="Path 29352" d="M38,36H48.6v2.65H38Z" transform="translate(11.702 11.052)" fill="#4ab75e"/>
  </g>
</svg>
