<svg xmlns="http://www.w3.org/2000/svg" width="81.999" height="73.799" viewBox="0 0 81.999 73.799">
  <path id="_134597" data-name="134597" d="M81.983,27.6c-.135-2.338-2.916-4.166-8.479-5.56a3.082,3.082,0,0,0,.294-1.279V11.2h-.023C73.286,3.235,40.648,3,36.9,3S.512,3.235.023,11.2H0v.178H0v9.387c.007,2.6,3.358,4.629,8.343,6.142a3,3,0,0,0-.123.693H8.2v.178h0v9.371C2.829,38.531.146,40.333.014,42.633H0v.178H0V52.2c0,1.808,1.635,3.341,4.3,4.619a3.011,3.011,0,0,0-.182.85H4.1v.178h0v9.387c.011,4.545,10.246,7.368,21.618,8.685a1.254,1.254,0,0,0,.249.051c.026,0,.048-.014.074-.015,2.192.247,4.42.44,6.624.578a1.129,1.129,0,0,0,.135.027c.026,0,.046-.014.071-.015,2.8.169,5.553.256,8.129.256s5.33-.086,8.129-.257c.025,0,.046.015.071.015.048,0,.089-.023.135-.027,2.2-.138,4.432-.329,6.624-.578.026,0,.048.014.074.014a1.255,1.255,0,0,0,.249-.051C67.653,74.6,77.886,71.774,77.9,67.227V57.666h-.022c-.1-1.676-1.524-3.074-4.345-4.242a3.056,3.056,0,0,0,.266-1.23V43.261c4.906-1.509,8.193-3.527,8.2-6.1V27.6ZM70.918,52.638l-.466.409a12.227,12.227,0,0,1-3.486,1.886V48.416a20.338,20.338,0,0,0,4.1-1.88v5.655A.869.869,0,0,1,70.918,52.638ZM40.351,58.989c-.2.005-.4.008-.6.012-.488.01-.988.012-1.483.016V52.191q.564-.006,1.127-.016l.217,0q2.064-.039,4.122-.131v6.824q-.439.023-.883.041C42.028,58.941,41.2,58.968,40.351,58.989Zm-5.968.019q-.939-.016-1.868-.045l-.23-.008q-1.117-.037-2.218-.092V52.041q2.054.1,4.122.131l.216,0q.564.01,1.127.016v6.83c-.265,0-.53,0-.794-.007C34.618,59.013,34.5,59.009,34.383,59.008ZM9.7,55.892l-.133-.038v-6.6c1.276.344,2.649.659,4.1.944v6.671q-1.882-.4-3.466-.834C10.034,55.985,9.862,55.94,9.7,55.892ZM38.505,67.209q.564.01,1.127.016v6.832q-2.833-.027-5.467-.159V67.075q2.054.1,4.122.131Zm5.206,0q2.064-.039,4.122-.131V73.9q-2.632.129-5.467.159V67.224q.564-.006,1.127-.016Zm10.955-.618v6.787q-1.97.207-4.1.359V66.918C51.952,66.828,53.321,66.717,54.666,66.587Zm2.733-.3q2.114-.254,4.1-.577v6.71q-1.931.34-4.1.626Zm6.833-1.065c1.451-.286,2.823-.6,4.1-.944v6.6c-1.218.351-2.588.692-4.1,1.013Zm-46.466,0V71.9c-1.512-.321-2.882-.661-4.1-1.013v-6.6C14.943,64.627,16.315,64.943,17.766,65.227Zm2.733.489q1.984.322,4.1.577v6.759q-2.167-.285-4.1-.626Zm6.833.871c1.345.13,2.714.241,4.1.332v6.815q-2.13-.15-4.1-.359Zm-3.391-8.173-.415-.042-.294-.031V51.555c1.345.13,2.714.241,4.1.332V58.7C26.185,58.616,25.051,58.523,23.942,58.415ZM20.5,51.259v6.759q-2.167-.285-4.1-.626v-6.71Q18.384,51,20.5,51.259Zm26.876,7.374q-.451.035-.91.068V51.886c1.386-.092,2.755-.2,4.1-.332v6.787c-.845.089-1.708.172-2.6.245C47.772,58.6,47.574,58.618,47.376,58.633Zm5.923-.615V51.259q2.114-.254,4.1-.577v6.71Q55.468,57.733,53.3,58.018Zm6.833-7.824c1.451-.286,2.823-.6,4.1-.944v6.6c-1.218.351-2.588.692-4.1,1.013ZM41.443,43.951c-1.028-.026-2.032-.066-3.019-.113l-.159-.007V37.008q2.054.1,4.122.131l.216,0q.564.01,1.127.016v6.824c-.666-.007-1.337-.01-1.986-.025ZM9.566,24.421v-6.6c1.276.344,2.649.659,4.1.944v6.671l-.506-.107c-.727-.16-1.436-.327-2.114-.5C10.53,24.691,10.039,24.556,9.566,24.421Zm24.839-3.678q.564.01,1.127.016v6.824c-1.84-.018-3.668-.066-5.467-.156V20.609q2.054.1,4.122.131Zm5.206,0q2.064-.039,4.122-.131v6.818c-.232.011-.455.027-.689.038l-.059,0c-.917.041-1.852.071-2.8.093l-.443.01c-.487.01-.984.011-1.477.016V20.76q.564-.006,1.127-.016Zm31.142.686-.038-.008-.5.387a13.292,13.292,0,0,1-3.251,1.68v-6.5a20.338,20.338,0,0,0,4.1-1.881v5.655A1.073,1.073,0,0,1,70.752,21.425ZM53.3,26.577V19.826q2.114-.254,4.1-.577v6.7C56.1,26.178,54.739,26.389,53.3,26.577Zm6.833-1.155v-6.66c1.451-.286,2.823-.6,4.1-.944v6.587C63.008,24.762,61.629,25.1,60.132,25.422Zm-9.566-5.3V26.9q-1.98.209-4.1.362V20.453C47.852,20.362,49.221,20.251,50.566,20.121ZM23.233,26.9V20.121c1.345.13,2.714.241,4.1.332v6.8C25.942,27.157,24.569,27.043,23.233,26.9ZM20.5,19.826v6.753c-.271-.036-.552-.064-.82-.1l-.514-.075q-1.185-.17-2.319-.362l-.447-.079v-6.71Q18.384,19.571,20.5,19.826ZM35.194,43.643,34.64,43.6q-1.312-.1-2.562-.227l-.536-.055c-.037,0-.072-.01-.109-.012V36.521c1.345.13,2.714.241,4.1.332v6.811C35.422,43.656,35.3,43.651,35.194,43.643Zm-9.029-1.021c-.541-.086-1.05-.179-1.565-.269v-6.7q1.984.322,4.1.577v6.759c-.836-.111-1.655-.225-2.441-.348Q26.212,42.628,26.164,42.622Zm-4.3-7.46v6.66q-2.265-.486-4.1-1.026V34.217C19.043,34.561,20.415,34.877,21.866,35.161Zm-6.833-1.779v6.493c-2.148-.83-3.534-1.677-3.985-2.431l-.092-.153a.864.864,0,0,1-.023-.13V31.5A20.338,20.338,0,0,0,15.033,33.382Zm32.778,3.757q2.064-.039,4.122-.131v6.817c-1.8.089-3.622.138-5.467.157V37.159q.564-.006,1.127-.016Zm17.661,5.244c-.6.1-1.205.206-1.827.3-.357.055-.722.107-1.088.159-.346.049-.705.092-1.056.137V36.226q2.114-.254,4.1-.577v6.71ZM56.218,43.55c-.51.042-1.036.07-1.553.107v-6.8c1.386-.092,2.755-.2,4.1-.332V43.3c-.794.083-1.587.167-2.4.235Zm15.618-2.562c-.681.19-1.4.368-2.136.541-.34.079-.687.159-1.043.235-.105.023-.217.044-.324.067V35.163c1.451-.286,2.823-.6,4.1-.944v6.6Zm7.414-13.3c-.126.928-2.229,2.162-5.983,3.322h0A91.732,91.732,0,0,1,51.278,34.3c-.491.02-.98.041-1.48.057-.409.014-.819.026-1.235.037-1.132.025-2.28.042-3.463.042s-2.331-.018-3.463-.044c-.415-.01-.825-.023-1.235-.037-.5-.015-.991-.037-1.48-.057a91.721,91.721,0,0,1-21.989-3.285h0c-3.724-1.151-5.823-2.375-5.979-3.3a.321.321,0,0,1,.023-.081c.093.023.2.042.291.066.534.127,1.082.25,1.64.368,2.716.585,5.725,1.065,8.931,1.431.011,0,.019.005.029.005h.007c2.184.249,4.45.444,6.776.582.018,0,.033.01.051.01s.016-.005.026-.005q2.511.148,5.087.209c1.051.026,2.083.04,3.087.04.717,0,1.453-.008,2.195-.022,9.93-.153,19.133-1.334,25.537-3.164.3-.083.584-.169.868-.256.174-.053.351-.105.519-.159.495-.159.969-.321,1.427-.491l.234-.09c.387-.146.758-.3,1.114-.452.1-.045.208-.089.307-.134.379-.171.745-.346,1.084-.528.153-.081.286-.164.429-.246.164-.094.328-.19.48-.287.086-.055.189-.107.271-.161C77.482,25.671,79.094,27.123,79.25,27.688ZM36.9,5.733c22.535,0,33.932,3.548,34.146,5.584-.165.924-2.263,2.144-5.978,3.292h0A91.732,91.732,0,0,1,43.078,17.9c-.491.021-.98.041-1.48.057-.409.014-.819.026-1.235.037-1.132.026-2.28.044-3.463.044s-2.331-.018-3.463-.044c-.415-.01-.825-.023-1.235-.037-.5-.015-.991-.037-1.48-.057A91.72,91.72,0,0,1,8.731,14.61h0c-3.716-1.148-5.812-2.368-5.978-3.292C2.967,9.281,14.365,5.733,36.9,5.733ZM2.733,20.761V15.1a20.338,20.338,0,0,0,4.1,1.881v6.543C4.175,22.529,2.736,21.53,2.733,20.761Zm6.62,18.913c.02.022.052.041.072.063,1.871,1.889,5.745,3.373,10.568,4.48.111.026.228.051.34.077q.531.119,1.077.232a105.4,105.4,0,0,0,15.477,1.963H36.9q2.776.162,5.676.216c.856.018,1.7.029,2.52.029.943,0,1.911-.011,2.895-.034,1.788-.037,3.549-.111,5.286-.212.007,0,.012,0,.019,0s.022-.007.034-.007a105.7,105.7,0,0,0,15.777-2.02,24.759,24.759,0,0,1-4.043,1.58h0c-5.1,1.577-13.256,3.013-23.617,3.347-.307.01-.611.02-.922.029-.335.008-.675.014-1.015.021-.86.014-1.725.026-2.613.026-1.184,0-2.331-.018-3.463-.044-.415-.01-.825-.023-1.235-.037-.5-.015-.991-.037-1.48-.057A91.721,91.721,0,0,1,8.731,46.042h0c-3.758-1.162-5.862-2.4-5.983-3.325C2.9,42.2,4.282,40.917,9.353,39.674Zm-6.62,12.52V46.534a20.338,20.338,0,0,0,4.1,1.88v6.518l-.78-.3-.016.016C3.891,53.756,2.736,52.882,2.733,52.194Zm4.1,15.033V61.567a20.337,20.337,0,0,0,4.1,1.88v6.543C8.275,69,6.836,68,6.833,67.227Zm64.232,2.765V63.449a20.338,20.338,0,0,0,4.1-1.88v5.655C75.164,67.993,73.724,68.994,71.065,69.991Zm4.082-12.221c-.149.925-2.248,2.152-5.98,3.306h0a91.732,91.732,0,0,1-21.989,3.285c-.491.021-.98.041-1.48.057-.409.014-.819.026-1.235.037-1.132.025-2.28.042-3.463.042s-2.333-.018-3.466-.044c-.411-.01-.817-.023-1.223-.037-.5-.016-1-.037-1.49-.057a91.732,91.732,0,0,1-21.989-3.285h0c-3.615-1.117-5.7-2.3-5.965-3.218.407.142.83.28,1.263.415l.131.04q.553.17,1.133.329c.146.041.294.082.443.122.219.059.443.115.667.172a99.7,99.7,0,0,0,18.19,2.584H28.7c2.118.126,4.282.2,6.468.23.582.011,1.16.016,1.727.016.753,0,1.524-.01,2.3-.023,1.994-.033,3.962-.107,5.886-.221,0,0,.007,0,.011,0s.011,0,.018,0c2.344-.141,4.612-.342,6.792-.592.008,0,.015,0,.023,0,.03,0,.055-.015.085-.018,2.427-.28,4.729-.625,6.865-1.025.44-.081.873-.164,1.3-.25l.287-.059A36.721,36.721,0,0,0,70.4,56.35c.131-.071.254-.145.379-.217.152-.09.3-.182.437-.275s.283-.167.4-.253C74.315,56.567,75.059,57.428,75.148,57.771Zm.018-17.846V33.383a20.338,20.338,0,0,0,4.1-1.881v5.655C79.264,37.927,77.823,38.928,75.165,39.925Z" transform="translate(0 -3)" fill="#4ab75e"/>
</svg>
