<?xml version="1.0"?>
<svg xmlns="http://www.w3.org/2000/svg" xmlns:xlink="http://www.w3.org/1999/xlink" xmlns:svgjs="http://svgjs.com/svgjs" version="1.1" width="512" height="512" x="0" y="0" viewBox="0 0 480 480" style="enable-background:new 0 0 512 512" xml:space="preserve" class=""><g>
<g xmlns="http://www.w3.org/2000/svg">
	<g>
		<path d="M375.98,40c-35.346,0-64,28.654-64,64c0.04,35.33,28.67,63.96,64,64c35.346,0,64-28.654,64-64    C439.98,68.654,411.326,40,375.98,40z M375.98,152c-26.51,0-48-21.49-48-48c0.026-26.499,21.501-47.974,48-48    c26.51,0,48,21.49,48,48S402.49,152,375.98,152z" fill="#4ab75e" data-original="#000000" style="" class=""/>
	</g>
</g>
<g xmlns="http://www.w3.org/2000/svg">
	<g>
		<rect x="367.98" width="16" height="24" fill="#4ab75e" data-original="#000000" style="" class=""/>
	</g>
</g>
<g xmlns="http://www.w3.org/2000/svg">
	<g>
		<rect x="367.98" y="184" width="16" height="24" fill="#4ab75e" data-original="#000000" style="" class=""/>
	</g>
</g>
<g xmlns="http://www.w3.org/2000/svg">
	<g>
		<rect x="271.98" y="96" width="24" height="16" fill="#4ab75e" data-original="#000000" style="" class=""/>
	</g>
</g>
<g xmlns="http://www.w3.org/2000/svg">
	<g>
		<rect x="455.98" y="96" width="24" height="16" fill="#4ab75e" data-original="#000000" style="" class=""/>
	</g>
</g>
<g xmlns="http://www.w3.org/2000/svg">
	<g>
		<rect x="302.921" y="26.946" transform="matrix(0.7071 -0.7071 0.7071 0.7071 63.5276 231.2613)" width="16" height="24" fill="#4ab75e" data-original="#000000" style="" class=""/>
	</g>
</g>
<g xmlns="http://www.w3.org/2000/svg">
	<g>
		<rect x="433.028" y="157.037" transform="matrix(0.7071 -0.7071 0.7071 0.7071 9.6468 361.3641)" width="16" height="24" fill="#4ab75e" data-original="#000000" style="" class=""/>
	</g>
</g>
<g xmlns="http://www.w3.org/2000/svg">
	<g>
		<rect x="298.924" y="161.031" transform="matrix(0.7071 -0.7071 0.7071 0.7071 -28.4553 269.3647)" width="24" height="16" fill="#4ab75e" data-original="#000000" style="" class=""/>
	</g>
</g>
<g xmlns="http://www.w3.org/2000/svg">
	<g>
		<rect x="429.036" y="30.943" transform="matrix(0.7071 -0.7071 0.7071 0.7071 101.64 323.2658)" width="24" height="16" fill="#4ab75e" data-original="#000000" style="" class=""/>
	</g>
</g>
<g xmlns="http://www.w3.org/2000/svg">
	<g>
		<path d="M431.004,468.168l-192-352c-1.402-2.57-4.096-4.169-7.024-4.168h-224c-0.601,0.013-1.199,0.09-1.784,0.232    c-0.064,0-0.128,0-0.192,0c-0.78,0.209-1.522,0.538-2.2,0.976c-0.2,0.132-0.393,0.277-0.576,0.432    c-0.66,0.501-1.243,1.096-1.728,1.768c-0.112,0.168-0.264,0.304-0.368,0.48c-0.17,0.324-0.315,0.661-0.432,1.008    c-0.105,0.208-0.198,0.422-0.28,0.64c-0.255,0.775-0.39,1.584-0.4,2.4V176c-0.001,1.329,0.329,2.638,0.96,3.808l159.96,296    c1.399,2.584,4.102,4.194,7.04,4.192h256c4.418,0.001,8.001-3.58,8.001-7.999C431.982,470.662,431.646,469.344,431.004,468.168z     M362.5,376h-53.768l-39.272-72h53.768L362.5,376z M170.5,288h-61.768L69.46,216h61.768L170.5,288z M149.46,216h53.768l39.272,72    h-53.768L149.46,216z M179.228,304l39.272,72h-61.768l-39.272-72H179.228z M197.46,304h53.768l39.272,72h-53.768L197.46,304z     M314.5,288h-53.768l-39.272-72h53.768L314.5,288z M227.228,128l39.272,72h-53.768l-39.272-72H227.228z M155.228,128l39.272,72    h-53.768l-39.272-72H155.228z M83.228,128l39.272,72H60.732L21.46,128H83.228z M172.78,464L15.98,173.976v-22.6L186.5,464H172.78z     M204.732,464l-39.272-72h61.768l39.272,72H204.732z M284.732,464l-39.272-72h53.768l39.272,72H284.732z M356.732,464l-39.272-72    h53.768l39.272,72H356.732z" fill="#4ab75e" data-original="#000000" style="" class=""/>
	</g>
</g>
<g xmlns="http://www.w3.org/2000/svg">
</g>
<g xmlns="http://www.w3.org/2000/svg">
</g>
<g xmlns="http://www.w3.org/2000/svg">
</g>
<g xmlns="http://www.w3.org/2000/svg">
</g>
<g xmlns="http://www.w3.org/2000/svg">
</g>
<g xmlns="http://www.w3.org/2000/svg">
</g>
<g xmlns="http://www.w3.org/2000/svg">
</g>
<g xmlns="http://www.w3.org/2000/svg">
</g>
<g xmlns="http://www.w3.org/2000/svg">
</g>
<g xmlns="http://www.w3.org/2000/svg">
</g>
<g xmlns="http://www.w3.org/2000/svg">
</g>
<g xmlns="http://www.w3.org/2000/svg">
</g>
<g xmlns="http://www.w3.org/2000/svg">
</g>
<g xmlns="http://www.w3.org/2000/svg">
</g>
<g xmlns="http://www.w3.org/2000/svg">
</g>
</g></svg>
